STARTFONT 2.1
COMMENT
COMMENT Converted from OpenType font "Q:\font stuff\winfont\Athletic.ttf" by "otf2bdf 3.0".
COMMENT
FONT -FreeType-Athletic-Medium-R-Normal--52-520-72-72-P-67-ISO10646-1
SIZE 52 72 72
FONTBOUNDINGBOX 53 58 -9 -5
STARTPROPERTIES 19
FOUNDRY "FreeType"
FAMILY_NAME "Athletic"
WEIGHT_NAME "Medium"
SLANT "R"
SETWIDTH_NAME "Normal"
ADD_STYLE_NAME ""
PIXEL_SIZE 52
POINT_SIZE 520
RESOLUTION_X 72
RESOLUTION_Y 72
SPACING "P"
AVERAGE_WIDTH 67
CHARSET_REGISTRY "ISO10646"
CHARSET_ENCODING "1"
FONT_ASCENT 52
FONT_DESCENT 5
COPYRIGHT " "
_OTF_FONTFILE "Q:\font stuff\winfont\Athletic.ttf"
_OTF_PSNAME "Athletic"
ENDPROPERTIES
CHARS 394
STARTCHAR 0020
ENCODING 32
SWIDTH 38 0
DWIDTH 2 0
BBX 0 0 0 0
BITMAP
ENDCHAR
STARTCHAR 0021
ENCODING 33
SWIDTH 230 0
DWIDTH 12 0
BBX 15 49 -1 3
BITMAP
FFFE
FFFC
FFFC
FFFC
FFFC
FFFC
FFFC
FFFC
FFFC
7FFC
7FFC
7FFC
7FF8
7FF8
7FF8
7FF8
7FF8
7FF8
7FF8
7FF8
7FF8
3FF8
3FF8
3FF8
3FF0
3FF0
3FF0
3FF0
3FF0
3FF0
3FF0
3FF0
3FF0
0000
0000
0000
0000
7FF8
7FF8
7FF8
7FF8
7FF8
7FF8
7FF8
7FF8
7FF8
7FF8
7FF8
7FF8
ENDCHAR
STARTCHAR 0022
ENCODING 34
SWIDTH 38 0
DWIDTH 2 0
BBX 14 10 -5 43
BITMAP
FC7C
F87C
F87C
F87C
F87C
F87C
7038
7038
7038
7038
ENDCHAR
STARTCHAR 0023
ENCODING 35
SWIDTH 288 0
DWIDTH 15 0
BBX 27 23 -4 29
BITMAP
00F83C00
00F83C00
00F07C00
00F07C00
3FFFFFE0
3FFFFFC0
3FFFFFC0
7FFFFFC0
7FFFFFC0
01E0F800
03E0F000
03E0F000
03C0F000
03C1F000
FFFFFF80
FFFFFF00
FFFFFF00
FFFFFF00
0783E000
0783E000
0F83E000
0F83C000
0F83C000
ENDCHAR
STARTCHAR 0024
ENCODING 36
SWIDTH 480 0
DWIDTH 25 0
BBX 25 49 0 2
BITMAP
007F0000
007F0000
007F0000
007F0000
03FFE000
07FFF000
0FFFF800
1FFFFC00
3FFFFE00
3FFFFF00
7FFFFF80
FFFFFF80
FF80FF80
FF80FF80
FF800000
FF800000
FF800000
FF800000
FFFFE000
FFFFF000
FFFFF800
FFFFFC00
FFFFFE00
FFFFFF00
7FFFFF80
3FFFFF80
1FFFFF80
1FFFFF80
0FFFFF80
0001FF80
0001FF80
0001FF80
0001FF80
7F81FF80
7F81FF80
7F81FF80
7FFFFF80
7FFFFF80
7FFFFF80
7FFFFF00
3FFFFE00
1FFFFC00
0FFFF800
07FFF000
03FFE000
007F0000
007F0000
007F0000
007F0000
ENDCHAR
STARTCHAR 0025
ENCODING 37
SWIDTH 865 0
DWIDTH 45 0
BBX 43 49 1 3
BITMAP
0FF80000FFE0
1FF80000FFC0
3FFC0001FFC0
3FFE0003FF80
7FFF0007FF00
FFFF8007FF00
FFFF800FFE00
FE1F801FFC00
FC1F801FFC00
FC1F803FF800
FC1F807FF000
FC1F807FF000
FC1F80FFE000
FE1F81FFC000
FFFF81FFC000
FFFF83FF8000
FFFF07FF0000
7FFE07FF0000
3FFC0FFE0000
1FFC1FFC0000
0FF81FFC0000
00003FF80000
00007FF00000
00007FF00000
0000FFE00000
0001FFC00000
0001FFC00000
0003FF800000
0007FF07FE00
0007FF07FF00
000FFE0FFF80
001FFC1FFFC0
001FF81FFFC0
003FF83FFFE0
007FF03FFFE0
007FE03F0FE0
00FFE03F07E0
01FFC03F07E0
01FF803F07E0
03FF803F07E0
07FF003F07E0
07FE003F0FE0
0FFE003FFFE0
1FFC003FFFE0
1FF8001FFFC0
3FF8000FFF80
7FF00007FF80
7FE00003FF00
FFC00003FE00
ENDCHAR
STARTCHAR 0026
ENCODING 38
SWIDTH 500 0
DWIDTH 26 0
BBX 0 0 0 0
BITMAP
ENDCHAR
STARTCHAR 0027
ENCODING 39
SWIDTH 500 0
DWIDTH 26 0
BBX 0 0 0 0
BITMAP
ENDCHAR
STARTCHAR 0028
ENCODING 40
SWIDTH 500 0
DWIDTH 26 0
BBX 0 0 0 0
BITMAP
ENDCHAR
STARTCHAR 0029
ENCODING 41
SWIDTH 500 0
DWIDTH 26 0
BBX 0 0 0 0
BITMAP
ENDCHAR
STARTCHAR 002A
ENCODING 42
SWIDTH 38 0
DWIDTH 2 0
BBX 16 15 -6 37
BITMAP
0C30
1C38
0E78
0F70
07F0
07E0
FFFF
FFFF
FFFF
07E0
07F0
0E70
1E78
1C38
0C10
ENDCHAR
STARTCHAR 002B
ENCODING 43
SWIDTH 500 0
DWIDTH 26 0
BBX 0 0 0 0
BITMAP
ENDCHAR
STARTCHAR 002C
ENCODING 44
SWIDTH 192 0
DWIDTH 10 0
BBX 9 16 0 -5
BITMAP
FF80
FF80
FF80
FF00
FF00
FF00
FF00
FF00
FE00
FE00
FE00
FE00
FE00
FC00
FC00
FC00
ENDCHAR
STARTCHAR 002D
ENCODING 45
SWIDTH 500 0
DWIDTH 26 0
BBX 0 0 0 0
BITMAP
ENDCHAR
STARTCHAR 002E
ENCODING 46
SWIDTH 211 0
DWIDTH 11 0
BBX 10 12 0 3
BITMAP
FFC0
FFC0
FFC0
FFC0
FFC0
FFC0
FFC0
FFC0
FFC0
FFC0
FFC0
FFC0
ENDCHAR
STARTCHAR 002F
ENCODING 47
SWIDTH 480 0
DWIDTH 25 0
BBX 33 49 0 4
BITMAP
000001FF80
000001FF80
000003FF00
000003FF00
000007FE00
000007FE00
00000FFE00
00000FFC00
00000FFC00
00001FF800
00001FF800
00003FF000
00003FF000
00007FE000
00007FE000
0000FFC000
0000FFC000
0001FF8000
0001FF8000
0003FF0000
0003FF0000
0007FE0000
0007FE0000
000FFC0000
000FFC0000
001FF80000
001FF80000
003FF00000
003FF00000
007FE00000
007FE00000
00FFC00000
00FFC00000
01FF800000
01FF800000
03FF000000
03FF000000
07FE000000
07FE000000
07FE000000
0FFC000000
0FFC000000
1FF8000000
1FF8000000
3FF0000000
3FF0000000
7FE0000000
7FE0000000
FFC0000000
ENDCHAR
STARTCHAR 0030
ENCODING 48
SWIDTH 576 0
DWIDTH 30 0
BBX 29 49 0 3
BITMAP
03FFFE00
07FFFF00
0FFFFF80
0FFFFFC0
1FFFFFC0
3FFFFFE0
7FFFFFF0
7FFFFFF8
FFFFFFF8
FFF03FF8
FFE01FF8
FFC00FF8
FFC00FF8
FFC00FF8
FFC00FF8
FFC00FF8
FFC00FF8
FFC00FF8
FFC00FF8
FFC00FF8
FFC00FF8
FFC00FF8
FFC00FF8
FFC00FF8
FFC00FF8
FFC00FF8
FFC00FF8
FFC00FF8
FFC00FF8
FFC00FF8
FFC00FF8
FFC00FF8
FFC00FF8
FFC00FF8
FFC00FF8
FFC00FF8
FFC00FF8
FFC00FF8
FFE01FF8
FFF03FF8
FFFFFFF8
7FFFFFF8
7FFFFFF0
3FFFFFE0
1FFFFFC0
0FFFFFC0
0FFFFF80
07FFFF00
03FFFE00
ENDCHAR
STARTCHAR 0031
ENCODING 49
SWIDTH 326 0
DWIDTH 17 0
BBX 17 49 -1 4
BITMAP
0FFE00
1FFE00
3FFE00
3FFE00
7FFE00
FFFE00
FFFE00
FFFE00
FFFE00
FFFE00
FFFE00
FFFE00
0FFE00
0FFE00
0FFE00
0FFE00
0FFE00
0FFE00
0FFE00
0FFE00
0FFE00
0FFE00
0FFE00
0FFE00
0FFE00
0FFE00
0FFE00
0FFE00
0FFE00
0FFE00
0FFE00
0FFE00
0FFE00
0FFE00
0FFE00
0FFE00
0FFE00
7FFF80
7FFF80
7FFF80
7FFF80
7FFF80
7FFF80
7FFF80
7FFF80
7FFF80
7FFF80
7FFF80
7FFF80
ENDCHAR
STARTCHAR 0032
ENCODING 50
SWIDTH 576 0
DWIDTH 30 0
BBX 30 49 0 3
BITMAP
01FFFE00
03FFFF00
07FFFF00
0FFFFF80
1FFFFFC0
3FFFFFE0
7FFFFFF0
7FFFFFF0
FFFFFFF8
FFFFFFF8
FFFFFFF8
FFF07FF8
FFC03FF8
FFC03FF8
FFC03FF8
FFC03FF8
FFC03FF8
00003FF8
00003FF8
00007FF8
0000FFF8
0001FFF8
0003FFF8
0007FFF0
000FFFE0
001FFFC0
003FFF80
007FFF00
00FFFE00
01FFFE00
03FFFC00
07FFF800
0FFFF000
1FFFE000
3FFFC000
3FFF8000
7FFF0000
FFFFFFFC
FFFFFFFC
FFFFFFFC
FFFFFFFC
FFFFFFFC
FFFFFFFC
FFFFFFFC
FFFFFFFC
FFFFFFFC
FFFFFFFC
FFFFFFFC
FFFFFFFC
ENDCHAR
STARTCHAR 0033
ENCODING 51
SWIDTH 576 0
DWIDTH 30 0
BBX 29 49 0 3
BITMAP
01FFFE00
03FFFE00
07FFFF00
0FFFFF80
1FFFFFC0
3FFFFFE0
3FFFFFE0
7FFFFFF0
FFFFFFF8
FFFFFFF8
FFFFFFF8
FFF07FF8
FFC03FF8
FFC03FF8
FFC03FF8
FFC03FF8
00003FF8
00003FF8
00007FF8
0000FFF8
000FFFF8
000FFFF0
000FFFC0
000FFFE0
000FFFF0
000FFFF8
000FFFF8
000FFFF8
00007FF8
00003FF8
00003FF8
00003FF8
00003FF8
FFC03FF8
FFC03FF8
FFC03FF8
FFC03FF8
FFF07FF8
FFFFFFF8
FFFFFFF8
FFFFFFF8
7FFFFFF0
3FFFFFE0
3FFFFFE0
1FFFFFC0
0FFFFF80
07FFFF00
03FFFF00
01FFFE00
ENDCHAR
STARTCHAR 0034
ENCODING 52
SWIDTH 692 0
DWIDTH 36 0
BBX 35 49 0 3
BITMAP
00007FFE00
00007FFE00
0000FFFE00
0001FFFE00
0003FFFE00
0003FFFE00
0007FFFE00
000FFFFE00
000FFFFE00
001FFFFE00
003FF7FE00
003FF7FE00
007FE7FE00
00FFC7FE00
01FFC7FE00
01FF87FE00
03FF07FE00
07FF07FE00
07FE07FE00
0FFC07FE00
1FF807FE00
3FF807FE00
3FF007FE00
7FE007FE00
FFE007FE00
FFFFFFFFE0
FFFFFFFFE0
FFFFFFFFE0
FFFFFFFFE0
FFFFFFFFE0
FFFFFFFFE0
FFFFFFFFE0
FFFFFFFFE0
000007FE00
000007FE00
000007FE00
000007FE00
00003FFFC0
00003FFFC0
00003FFFC0
00003FFFC0
00003FFFC0
00003FFFC0
00003FFFC0
00003FFFC0
00003FFFC0
00003FFFC0
00003FFFC0
00003FFFC0
ENDCHAR
STARTCHAR 0035
ENCODING 53
SWIDTH 576 0
DWIDTH 30 0
BBX 29 49 0 2
BITMAP
FFFFFFE0
FFFFFFE0
FFFFFFE0
FFFFFFE0
FFFFFFE0
FFFFFFE0
FFFFFFE0
FFFFFFE0
FFFFFFE0
FFFFFFE0
FFC00000
FFC00000
FFC00000
FFC00000
FFC00000
FFC00000
FFC00000
FFFFFF00
FFFFFF80
FFFFFFC0
FFFFFFC0
FFFFFFE0
FFFFFFF0
FFFFFFF8
FFFFFFF8
FFFFFFF8
00007FF8
00007FF8
00003FF8
00003FF8
00003FF8
00003FF8
00003FF8
FFC03FF8
FFC03FF8
FFC03FF8
FFC03FF8
FFE07FF8
FFFFFFF8
FFFFFFF8
FFFFFFF8
7FFFFFF0
7FFFFFF0
3FFFFFE0
1FFFFFC0
0FFFFF80
07FFFF00
03FFFF00
01FFFE00
ENDCHAR
STARTCHAR 0036
ENCODING 54
SWIDTH 576 0
DWIDTH 30 0
BBX 29 49 0 3
BITMAP
01FFFE00
03FFFE00
07FFFF00
0FFFFF80
1FFFFFC0
3FFFFFE0
7FFFFFE0
7FFFFFF0
FFFFFFF8
FFFFFFF8
FFF07FF8
FFE03FF8
FFC01FF8
FFC01FF8
FFC00000
FFC00000
FFC00000
FFC00000
FFC00000
FFC00000
FFFFFF80
FFFFFFC0
FFFFFFC0
FFFFFFE0
FFFFFFF0
FFFFFFF8
FFFFFFF8
FFFFFFF8
FFC07FF8
FFC03FF8
FFC03FF8
FFC03FF8
FFC03FF8
FFC03FF8
FFC03FF8
FFC03FF8
FFC03FF8
FFE07FF8
FFFFFFF8
FFFFFFF8
FFFFFFF8
7FFFFFF0
3FFFFFE0
1FFFFFC0
0FFFFF80
0FFFFF80
07FFFF00
03FFFE00
01FFFC00
ENDCHAR
STARTCHAR 0037
ENCODING 55
SWIDTH 442 0
DWIDTH 23 0
BBX 30 49 -4 4
BITMAP
FFFFFFFC
FFFFFFFC
FFFFFFFC
FFFFFFFC
FFFFFFFC
FFFFFFFC
FFFFFFFC
FFFFFFFC
FFFFFFFC
FFFFFFFC
FFC01FFC
FFC01FFC
FFC01FFC
FFC03FFC
00003FF8
00007FF8
00007FF0
00007FF0
0000FFF0
0000FFE0
0001FFE0
0001FFC0
0001FFC0
0003FFC0
0003FF80
0007FF80
0007FF80
0007FF00
000FFF00
000FFE00
000FFE00
001FFE00
001FFC00
003FFC00
003FF800
003FF800
007FF800
007FF000
00FFF000
00FFF000
00FFE000
01FFE000
01FFC000
03FFC000
03FFC000
03FF8000
07FF8000
07FF8000
07FF0000
ENDCHAR
STARTCHAR 0038
ENCODING 56
SWIDTH 557 0
DWIDTH 29 0
BBX 28 49 1 3
BITMAP
03FFFC00
07FFFE00
0FFFFE00
1FFFFF00
1FFFFF80
3FFFFFC0
7FFFFFC0
FFFFFFE0
FFFFFFF0
FFFFFFF0
FFC0FFF0
FF807FF0
FF803FF0
FF803FF0
FF803FF0
FF803FF0
FF803FF0
FF803FF0
FFC07FF0
FFFFFFF0
FFFFFFF0
7FFFFFE0
3FFFFF80
3FFFFF80
FFFFFFE0
FFFFFFF0
FFFFFFF0
FFFFFFF0
FFC07FF0
FF803FF0
FF803FF0
FF803FF0
FF803FF0
FF803FF0
FF803FF0
FF803FF0
FF803FF0
FF803FF0
FFE0FFF0
FFFFFFF0
FFFFFFF0
FFFFFFE0
7FFFFFC0
3FFFFFC0
1FFFFF80
1FFFFF00
0FFFFE00
07FFFE00
03FFFC00
ENDCHAR
STARTCHAR 0039
ENCODING 57
SWIDTH 557 0
DWIDTH 29 0
BBX 29 49 0 3
BITMAP
03FFFE00
03FFFE00
07FFFF00
0FFFFF80
1FFFFFC0
1FFFFFC0
3FFFFFE0
7FFFFFF0
FFFFFFF8
FFFFFFF8
FFE07FF8
FFC03FF8
FFC01FF8
FFC01FF8
FFC01FF8
FFC01FF8
FFC01FF8
FFC01FF8
FFC01FF8
FFE07FF8
FFFFFFF8
FFFFFFF8
7FFFFFF8
7FFFFFF8
3FFFFFF8
1FFFFFF8
1FFFFFF8
0FFFFFF8
07FFFFF8
00001FF8
00001FF8
00001FF8
00001FF8
00001FF8
00001FF8
FFC01FF8
FFC01FF8
FFC01FF8
FFE07FF8
FFFFFFF8
FFFFFFF8
7FFFFFF0
3FFFFFE0
1FFFFFE0
1FFFFFC0
0FFFFF80
07FFFF00
03FFFE00
03FFFE00
ENDCHAR
STARTCHAR 003A
ENCODING 58
SWIDTH 115 0
DWIDTH 6 0
BBX 6 18 0 7
BITMAP
FC
FC
FC
FC
FC
FC
FC
00
00
00
00
FC
FC
FC
FC
FC
FC
FC
ENDCHAR
STARTCHAR 003B
ENCODING 59
SWIDTH 153 0
DWIDTH 8 0
BBX 7 23 0 4
BITMAP
7E
7E
7E
7E
7E
7E
7E
00
00
00
00
FE
FE
FE
FE
FC
FC
FC
FC
FC
F8
F8
F8
ENDCHAR
STARTCHAR 003C
ENCODING 60
SWIDTH 365 0
DWIDTH 19 0
BBX 19 29 0 12
BITMAP
000600
000F00
001F80
003FE0
007FC0
00FF80
01FF00
03FE00
07FC00
0FF800
1FF000
3FE000
7FC000
7F8000
FF8000
7FC000
3FE000
1FF000
0FF000
07F800
03FC00
01FE00
00FF00
007F80
003FC0
001FC0
000F80
000700
000200
ENDCHAR
STARTCHAR 003D
ENCODING 61
SWIDTH 500 0
DWIDTH 26 0
BBX 0 0 0 0
BITMAP
ENDCHAR
STARTCHAR 003E
ENCODING 62
SWIDTH 346 0
DWIDTH 18 0
BBX 17 27 1 14
BITMAP
100000
380000
7C0000
FE0000
FF0000
7F8000
3FC000
1FE000
0FF000
07F800
03FC00
01FE00
00FF00
007F80
00FF00
01FE00
03FC00
07F800
0FF000
1FE000
3FC000
7F8000
FF0000
FE0000
7C0000
380000
100000
ENDCHAR
STARTCHAR 003F
ENCODING 63
SWIDTH 403 0
DWIDTH 21 0
BBX 25 49 -4 3
BITMAP
03FFE000
07FFE000
0FFFF000
1FFFF800
1FFFFC00
3FFFFE00
7FFFFF00
FFFFFF00
FFFFFF80
FFFFFF80
FFFFFF80
FFFFFF80
FFC3FF80
FFC3FF80
FFC3FF80
FFC3FF80
0003FF80
0003FF80
007FFF80
00FFFF80
01FFFF80
03FFFF80
07FFFF00
07FFFF00
07FFFE00
07FFFC00
07FFF800
07FFF000
07FFF000
07FF0000
07FF0000
07FF0000
07FF0000
00000000
00000000
00000000
00000000
07FE0000
07FE0000
07FE0000
07FE0000
07FE0000
07FE0000
07FE0000
07FE0000
07FE0000
07FE0000
07FE0000
07FE0000
ENDCHAR
STARTCHAR 0040
ENCODING 64
SWIDTH 557 0
DWIDTH 29 0
BBX 29 48 0 3
BITMAP
03FFE000
03FFE000
07FFE000
0FFFE000
1FFFE000
3FFFE000
3FFFE000
7FFFE000
FFFFE000
FFFFE000
FFFFE000
FFF80000
FFF00000
FFE00000
FFE00000
FFE0FFC0
FFF0FFC0
FFF8FFC0
FFFFFFC0
FFFFFFF8
FFFFFFF8
7FFFFFF8
3FFFFFF8
1FFFFFF8
3FFFFFF8
7FFFFFF8
FFFFFFF8
FFF03FC0
FFE03FC0
FFC03FC0
FFC03FC0
FFC03FC0
FFC03FC0
FFC03FC0
FFC03FC0
FFC03FC0
FFE03FC0
FFFFFFC0
FFFFFFC0
FFFFFFC0
7FFFFFC0
3FFFFFC0
3FFFFFC0
1FFFFFC0
0FFFFFC0
07FFFFC0
07FFFFC0
03FFFFC0
ENDCHAR
STARTCHAR 0041
ENCODING 65
SWIDTH 788 0
DWIDTH 41 0
BBX 39 49 1 3
BITMAP
0003FF8000
0007FF8000
0007FFC000
0007FFC000
0007FFC000
000FFFC000
000FFFE000
000FFFE000
000FFFE000
001FFFE000
001FFFF000
001FFFF000
003FFFF000
003FFFF800
003FFFF800
003FFFF800
007FFFF800
007FFFFC00
007FEFFC00
00FFCFFC00
00FFCFFC00
00FFC7FE00
00FF87FE00
01FF87FE00
01FFFFFF00
01FFFFFF00
01FFFFFF00
03FFFFFF00
03FFFFFF80
03FFFFFF80
07FFFFFF80
07FFFFFF80
07FFFFFFC0
07FFFFFFC0
0FFE01FFC0
0FFE00FFE0
0FFE00FFE0
FFFF83FFFE
FFFF83FFFE
FFFF83FFFE
FFFF83FFFE
FFFF83FFFE
FFFF83FFFE
FFFF83FFFE
FFFF83FFFE
FFFF83FFFE
FFFF83FFFE
FFFF83FFFE
FFFF83FFFE
ENDCHAR
STARTCHAR 0042
ENCODING 66
SWIDTH 634 0
DWIDTH 33 0
BBX 32 49 0 3
BITMAP
FFFFFFC0
FFFFFFC0
FFFFFFE0
FFFFFFF0
FFFFFFF8
FFFFFFFC
FFFFFFFE
FFFFFFFF
FFFFFFFF
FFFFFFFF
FFFFFFFF
FFFC07FF
1FFC03FF
1FFC01FF
1FFC01FF
1FFC01FF
1FFC01FF
1FFC01FF
1FFC03FF
1FFFFFFF
1FFFFFFF
1FFFFFFE
1FFFFFFC
1FFFFFF8
1FFFFFF0
1FFFFFF8
1FFFFFFC
1FFFFFFE
1FFFFFFF
1FFFFFFF
1FFC03FF
1FFC01FF
1FFC01FF
1FFC01FF
1FFC01FF
1FFC01FF
1FFC03FF
FFFC03FF
FFFFFFFF
FFFFFFFF
FFFFFFFF
FFFFFFFF
FFFFFFFE
FFFFFFFC
FFFFFFF8
FFFFFFF0
FFFFFFE0
FFFFFFC0
FFFFFFC0
ENDCHAR
STARTCHAR 0043
ENCODING 67
SWIDTH 673 0
DWIDTH 35 0
BBX 34 49 0 3
BITMAP
01FFFFE000
03FFFFF000
07FFFFF800
0FFFFFFC00
1FFFFFFE00
3FFFFFFF00
3FFFFFFF80
7FFFFFFF80
FFFFFFFFC0
FFFFFFFFC0
FFE000FFC0
FFC0007FC0
FFC0007FC0
FFC0007FC0
FFC0007FC0
FFC0007FC0
FFC0007FC0
FFC0000000
FFC0000000
FFC0000000
FFC0000000
FFC0000000
FFC0000000
FFC0000000
FFC0000000
FFC0000000
FFC0000000
FFC0000000
FFC0000000
FFC0000000
FFC0000000
FFC0007FC0
FFC0007FC0
FFC0007FC0
FFC0007FC0
FFC0007FC0
FFC0007FC0
FFC000FFC0
FFE001FFC0
FFFFFFFFC0
FFFFFFFFC0
7FFFFFFF80
7FFFFFFF00
3FFFFFFF00
1FFFFFFE00
0FFFFFFC00
07FFFFF800
03FFFFF000
01FFFFE000
ENDCHAR
STARTCHAR 0044
ENCODING 68
SWIDTH 673 0
DWIDTH 35 0
BBX 34 49 0 3
BITMAP
FFFFFFF000
FFFFFFF800
FFFFFFFC00
FFFFFFFE00
FFFFFFFE00
FFFFFFFF00
FFFFFFFF80
FFFFFFFFC0
FFFFFFFFC0
FFFFFFFFC0
FFFFFFFFC0
FFF801FFC0
1FF801FFC0
1FF800FFC0
1FF800FFC0
1FF800FFC0
1FF800FFC0
1FF800FFC0
1FF800FFC0
1FF800FFC0
1FF800FFC0
1FF800FFC0
1FF800FFC0
1FF800FFC0
1FF800FFC0
1FF800FFC0
1FF800FFC0
1FF800FFC0
1FF800FFC0
1FF800FFC0
1FF800FFC0
1FF800FFC0
1FF800FFC0
1FF800FFC0
1FF800FFC0
1FF800FFC0
1FF801FFC0
FFF803FFC0
FFFFFFFFC0
FFFFFFFFC0
FFFFFFFFC0
FFFFFFFFC0
FFFFFFFF80
FFFFFFFF00
FFFFFFFE00
FFFFFFFC00
FFFFFFF800
FFFFFFF000
FFFFFFF000
ENDCHAR
STARTCHAR 0045
ENCODING 69
SWIDTH 653 0
DWIDTH 34 0
BBX 34 49 0 3
BITMAP
FFFFFFFFC0
FFFFFFFFC0
FFFFFFFFC0
FFFFFFFFC0
FFFFFFFFC0
FFFFFFFFC0
FFFFFFFFC0
FFFFFFFFC0
FFFFFFFFC0
FFFFFFFFC0
FFFFFFFFC0
FFFFFFFFC0
1FF801FFC0
1FF801FFC0
1FF801FFC0
1FF8000000
1FF8000000
1FF8000000
1FF8000000
1FFFFE0000
1FFFFE0000
1FFFFE0000
1FFFFE0000
1FFFFE0000
1FFFFE0000
1FFFFE0000
1FFFFE0000
1FFFFE0000
1FFFFE0000
1FFFFE0000
1FF8000000
1FF8000000
1FF8000000
1FF8000000
1FF801FFC0
1FF801FFC0
1FF801FFC0
FFFFFFFFC0
FFFFFFFFC0
FFFFFFFFC0
FFFFFFFFC0
FFFFFFFFC0
FFFFFFFFC0
FFFFFFFFC0
FFFFFFFFC0
FFFFFFFFC0
FFFFFFFFC0
FFFFFFFFC0
FFFFFFFFC0
ENDCHAR
STARTCHAR 0046
ENCODING 70
SWIDTH 461 0
DWIDTH 24 0
BBX 35 49 0 3
BITMAP
FFFFFFFFE0
FFFFFFFFE0
FFFFFFFFE0
FFFFFFFFE0
FFFFFFFFE0
FFFFFFFFE0
FFFFFFFFE0
FFFFFFFFE0
FFFFFFFFE0
FFFFFFFFE0
FFFFFFFFE0
FFFFFFFFE0
1FF800FFE0
1FF800FFE0
1FF800FFE0
1FF8000000
1FF8000000
1FF8000000
1FF8000000
1FFFFF0000
1FFFFF0000
1FFFFF0000
1FFFFF0000
1FFFFF0000
1FFFFF0000
1FFFFF0000
1FFFFF0000
1FFFFF0000
1FFFFF0000
1FF8000000
1FF8000000
1FF8000000
1FF8000000
1FF8000000
1FF8000000
1FF8000000
1FF8000000
FFFF800000
FFFF800000
FFFF800000
FFFF800000
FFFF800000
FFFF800000
FFFF800000
FFFF800000
FFFF800000
FFFF800000
FFFF800000
FFFF800000
ENDCHAR
STARTCHAR 0047
ENCODING 71
SWIDTH 653 0
DWIDTH 34 0
BBX 33 49 0 2
BITMAP
01FFFFE000
03FFFFF000
07FFFFF800
0FFFFFFC00
1FFFFFFE00
3FFFFFFF00
7FFFFFFF80
FFFFFFFF80
FFFFFFFF80
FFFFFFFF80
FFFFFFFF80
FFFFFFFF80
FFE001FF80
FFC001FF80
FFC001FF80
FFC0000000
FFC0000000
FFC0000000
FFC0000000
FFC0000000
FFC0000000
FFC00FFF80
FFC00FFF80
FFC00FFF80
FFC00FFF80
FFC00FFF80
FFC00FFF80
FFC00FFF80
FFC00FFF80
FFC00FFF80
FFC001FF80
FFC001FF80
FFC001FF80
FFC001FF80
FFC001FF80
FFC001FF80
FFE001FF80
FFFFFFFF80
FFFFFFFF80
FFFFFFFF80
FFFFFFFF80
FFFFFFFF80
7FFFFFFF80
3FFFFFFF80
1FFFFFFF80
0FFFFFFF80
07FFFFFF80
03FFFFFF80
01FFFFFF80
ENDCHAR
STARTCHAR 0048
ENCODING 72
SWIDTH 788 0
DWIDTH 41 0
BBX 40 49 1 3
BITMAP
FFFF83FFFF
FFFF83FFFF
FFFF83FFFF
FFFF83FFFF
FFFF83FFFF
FFFF83FFFF
FFFF83FFFF
FFFF83FFFF
FFFF83FFFF
FFFF83FFFF
FFFF83FFFF
FFFF83FFFF
1FFC003FF0
1FFC003FF0
1FFC003FF0
1FFC003FF0
1FFC003FF0
1FFC003FF0
1FFC003FF0
1FFFFFFFF0
1FFFFFFFF0
1FFFFFFFF0
1FFFFFFFF0
1FFFFFFFF0
1FFFFFFFF0
1FFFFFFFF0
1FFFFFFFF0
1FFFFFFFF0
1FFFFFFFF0
1FFFFFFFF0
1FFC003FF0
1FFC003FF0
1FFC003FF0
1FFC003FF0
1FFC003FF0
1FFC003FF0
1FFC003FF0
FFFF83FFFF
FFFF83FFFF
FFFF83FFFF
FFFF83FFFF
FFFF83FFFF
FFFF83FFFF
FFFF83FFFF
FFFF83FFFF
FFFF83FFFF
FFFF83FFFF
FFFF83FFFF
FFFF83FFFF
ENDCHAR
STARTCHAR 0049
ENCODING 73
SWIDTH 326 0
DWIDTH 17 0
BBX 16 49 1 4
BITMAP
FFFE
FFFE
FFFE
FFFE
FFFE
FFFE
FFFE
FFFE
FFFE
FFFE
FFFE
3FF8
3FF8
3FF8
3FF8
3FF8
3FF8
3FF8
3FF8
3FF8
3FF8
3FF8
3FF8
3FF8
3FF8
3FF8
3FF8
3FF8
3FF8
3FF8
3FF8
3FF8
3FF8
3FF8
3FF8
3FF8
3FF8
FFFF
FFFF
FFFF
FFFF
FFFF
FFFF
FFFF
FFFF
FFFF
FFFF
FFFF
FFFF
ENDCHAR
STARTCHAR 004A
ENCODING 74
SWIDTH 500 0
DWIDTH 26 0
BBX 30 49 0 3
BITMAP
001FFFFC
001FFFFC
001FFFFC
001FFFFC
001FFFFC
001FFFFC
001FFFFC
001FFFFC
001FFFFC
001FFFFC
001FFFFC
001FFFFC
0001FFC0
0001FFC0
0001FFC0
0001FFC0
0001FFC0
0001FFC0
0001FFC0
0001FFC0
0001FFC0
0001FFC0
0001FFC0
0001FFC0
0001FFC0
0001FFC0
0001FFC0
0001FFC0
0001FFC0
0001FFC0
FFE1FFC0
FFE1FFC0
FFE1FFC0
FFE1FFC0
FFE1FFC0
FFE1FFC0
FFE1FFC0
FFFFFFC0
FFFFFFC0
FFFFFFC0
FFFFFFC0
FFFFFFC0
7FFFFF80
3FFFFF00
1FFFFE00
0FFFFE00
07FFFC00
03FFF800
01FFF000
ENDCHAR
STARTCHAR 004B
ENCODING 75
SWIDTH 788 0
DWIDTH 41 0
BBX 40 49 1 3
BITMAP
FFFF01FFFF
FFFF01FFFF
FFFF01FFFF
FFFF01FFFF
FFFF01FFFF
FFFF01FFFF
FFFF01FFFF
FFFF01FFFF
FFFF01FFFF
FFFF01FFFF
FFFF01FFFF
FFFF01FFFF
3FF8003FF8
3FF8007FF0
3FF800FFE0
3FF801FFC0
3FF803FF80
3FF807FF00
3FF80FFE00
3FF81FFC00
3FF83FF800
3FF87FF000
3FF8FFE000
3FF9FFE000
3FFBFFF000
3FFFFFF000
3FFFFFF800
3FFFFFFC00
3FFFFFFC00
3FFFF7FE00
3FFFE7FF00
3FFFC3FF00
3FFF81FF80
3FFF01FFC0
3FFE00FFE0
3FFC007FE0
3FFC003FF0
FFFF01FFFF
FFFF01FFFF
FFFF01FFFF
FFFF01FFFF
FFFF01FFFF
FFFF01FFFF
FFFF01FFFF
FFFF01FFFF
FFFF01FFFF
FFFF01FFFF
FFFF01FFFF
FFFF01FFFF
ENDCHAR
STARTCHAR 004C
ENCODING 76
SWIDTH 596 0
DWIDTH 31 0
BBX 31 49 0 3
BITMAP
FFFF0000
FFFF0000
FFFF0000
FFFF0000
FFFF0000
FFFF0000
FFFF0000
FFFF0000
FFFF0000
FFFF0000
FFFF0000
FFFF0000
3FF80000
3FF80000
3FF80000
3FF80000
3FF80000
3FF80000
3FF80000
3FF80000
3FF80000
3FF80000
3FF80000
3FF80000
3FF80000
3FF80000
3FF80000
3FF80000
3FF80000
3FF80000
3FF80000
3FF80000
3FF80000
3FF80000
3FF80FFE
3FF80FFE
3FF80FFE
FFFFFFFE
FFFFFFFE
FFFFFFFE
FFFFFFFE
FFFFFFFE
FFFFFFFE
FFFFFFFE
FFFFFFFE
FFFFFFFE
FFFFFFFE
FFFFFFFE
FFFFFFFE
ENDCHAR
STARTCHAR 004D
ENCODING 77
SWIDTH 846 0
DWIDTH 44 0
BBX 43 49 0 3
BITMAP
FFFC0003FFE0
FFFC0003FFE0
FFFE0007FFE0
FFFE0007FFE0
FFFF000FFFE0
FFFF000FFFE0
FFFF801FFFE0
FFFF803FFFE0
FFFFC03FFFE0
FFFFC07FFFE0
FFFFE07FFFE0
FFFFE0FFFFE0
1FFFF0FFFF00
1FFFF1FFFF00
1FFFF9FFFF00
1FFFFBFFFF00
1FFFFFFFFF00
1FFFFFFFFF00
1FFFFFFFFF00
1FFFFFFFFF00
1FFFFFFFFF00
1FFFFFFFFF00
1FFFFFFFFF00
1FFFFFFFFF00
1FFBFFFFFF00
1FFBFFFBFF00
1FF9FFF3FF00
1FF9FFF3FF00
1FF8FFE3FF00
1FF8FFE3FF00
1FF87FC3FF00
1FF83F83FF00
1FF83F83FF00
1FF80003FF00
1FF80003FF00
1FF80003FF00
1FF80003FF00
FFFE000FFFE0
FFFE000FFFE0
FFFE000FFFE0
FFFE000FFFE0
FFFE000FFFE0
FFFE000FFFE0
FFFE000FFFE0
FFFE000FFFE0
FFFE000FFFE0
FFFE000FFFE0
FFFE000FFFE0
FFFE000FFFE0
ENDCHAR
STARTCHAR 004E
ENCODING 78
SWIDTH 692 0
DWIDTH 36 0
BBX 38 49 0 4
BITMAP
FFF801FFFC
FFFC01FFFC
FFFC01FFFC
FFFE01FFFC
FFFE01FFFC
FFFF01FFFC
FFFF01FFFC
FFFF81FFFC
FFFF81FFFC
FFFFC1FFFC
FFFFC1FFFC
FFFFE1FFFC
1FFFE07FF0
1FFFF07FF0
1FFFF07FF0
1FFFF87FF0
1FFFF87FF0
1FFFFC7FF0
1FFFFC7FF0
1FFFFE7FF0
1FFFFF7FF0
1FFFFF7FF0
1FFFFFFFF0
1FFFFFFFF0
1FFFFFFFF0
1FFBFFFFF0
1FFBFFFFF0
1FF9FFFFF0
1FF9FFFFF0
1FF8FFFFF0
1FF8FFFFF0
1FF87FFFF0
1FF87FFFF0
1FF83FFFF0
1FF83FFFF0
1FF81FFFF0
1FF81FFFF0
FFFF0FFFF0
FFFF0FFFF0
FFFF07FFF0
FFFF07FFF0
FFFF03FFF0
FFFF03FFF0
FFFF01FFF0
FFFF01FFF0
FFFF00FFF0
FFFF00FFF0
FFFF007FF0
FFFF007FF0
ENDCHAR
STARTCHAR 004F
ENCODING 79
SWIDTH 692 0
DWIDTH 36 0
BBX 35 49 0 3
BITMAP
01FFFFF800
03FFFFFC00
07FFFFFE00
07FFFFFE00
0FFFFFFF00
1FFFFFFF80
3FFFFFFFC0
7FFFFFFFE0
7FFFFFFFE0
FFFFFFFFE0
FFF001FFE0
FFE000FFE0
FFC000FFE0
FFC000FFE0
FFC000FFE0
FFC000FFE0
FFC000FFE0
FFC000FFE0
FFC000FFE0
FFC000FFE0
FFC000FFE0
FFC000FFE0
FFC000FFE0
FFC000FFE0
FFC000FFE0
FFC000FFE0
FFC000FFE0
FFC000FFE0
FFC000FFE0
FFC000FFE0
FFC000FFE0
FFC000FFE0
FFC000FFE0
FFC000FFE0
FFC000FFE0
FFC000FFE0
FFE001FFE0
FFF001FFE0
FFFFFFFFE0
FFFFFFFFE0
FFFFFFFFE0
7FFFFFFFE0
3FFFFFFFC0
1FFFFFFF80
1FFFFFFF00
0FFFFFFE00
07FFFFFE00
03FFFFFC00
01FFFFF800
ENDCHAR
STARTCHAR 0050
ENCODING 80
SWIDTH 692 0
DWIDTH 36 0
BBX 34 49 1 3
BITMAP
FFFFFFE000
FFFFFFF000
FFFFFFF800
FFFFFFF800
FFFFFFFC00
FFFFFFFE00
FFFFFFFF00
FFFFFFFF00
FFFFFFFF80
FFFFFFFFC0
FFF001FFC0
FFF000FFC0
FFF0007FC0
3FF0007FC0
3FF0007FC0
3FF0007FC0
3FF0007FC0
3FF0007FC0
3FF0007FC0
3FF0007FC0
3FF0007FC0
3FF000FFC0
3FF001FFC0
3FFFFFFFC0
3FFFFFFF80
3FFFFFFF00
3FFFFFFE00
3FFFFFFE00
3FFFFFFC00
3FFFFFF800
3FFFFFF000
3FFFFFE000
3FF8000000
3FF8000000
3FF8000000
3FF8000000
3FF8000000
FFFF000000
FFFF000000
FFFF000000
FFFF000000
FFFF000000
FFFF000000
FFFF000000
FFFF000000
FFFF000000
FFFF000000
FFFF000000
FFFF000000
ENDCHAR
STARTCHAR 0051
ENCODING 81
SWIDTH 750 0
DWIDTH 39 0
BBX 38 50 0 2
BITMAP
01FFFFF800
01FFFFFC00
03FFFFFE00
07FFFFFE00
0FFFFFFF00
1FFFFFFF80
3FFFFFFFC0
3FFFFFFFE0
7FFFFFFFF0
FFFFFFFFF0
FFF800FFF0
FFF0007FF0
FFE0003FF0
FFE0003FF0
FFE0003FF0
FFE0003FF0
FFE0003FF0
FFE0003FF0
FFE0003FF0
FFE0003FF0
FFE0003FF0
FFE0003FF0
FFE0003FF0
FFE0003FF0
FFE0003FF0
FFE0003FF0
FFE0003FF0
FFE0003FF0
FFE0003FF0
FFE0003FF0
FFE0003FF0
FFE0003FF0
FFE0003FF0
FFE0003FF0
FFE0003FF0
FFE0007FF0
FFF000FFF0
FFF801FFF0
FFFFFFFFF0
FFFFFFFFF0
7FFFFFFFE0
3FFFFFFFC0
1FFFFFFFE0
1FFFFFFFE0
0FFFFFFFF0
07FFFFFFF8
03FFFFFDFC
01FFFFF8F8
0000000070
0000000020
ENDCHAR
STARTCHAR 0052
ENCODING 82
SWIDTH 673 0
DWIDTH 35 0
BBX 33 49 0 3
BITMAP
FFFFFF8000
FFFFFFC000
FFFFFFF000
FFFFFFF800
FFFFFFFC00
FFFFFFFE00
FFFFFFFF00
FFFFFFFF00
FFFFFFFF00
FFFFFFFF00
FFF81FFF00
FFF80FFF00
3FF807FF00
3FF807FF00
3FF807FF00
3FF807FF00
3FF807FF00
3FF80FFF00
3FF81FFF00
3FFFFFFF00
3FFFFFFF00
3FFFFFFF00
3FFFFFFF00
3FFFFFFE00
3FFFFFF800
3FFFFFF000
3FFFFFE000
3FFFFFE000
3FFFFFE000
3FF83FF000
3FF83FF000
3FF83FF800
3FF81FF800
3FF81FFC00
3FF80FFC00
3FF80FFC00
3FF807FE00
FFFE1FFF80
FFFE1FFF80
FFFE1FFF80
FFFE1FFF80
FFFE1FFF80
FFFE1FFF80
FFFE1FFF80
FFFE1FFF80
FFFE1FFF80
FFFE1FFF80
FFFE1FFF80
FFFE1FFF80
ENDCHAR
STARTCHAR 0053
ENCODING 83
SWIDTH 634 0
DWIDTH 33 0
BBX 33 49 0 2
BITMAP
00FFFFC000
01FFFFE000
03FFFFF000
07FFFFF800
0FFFFFFC00
1FFFFFFE00
3FFFFFFF00
3FFFFFFF80
7FFFFFFF80
FFF003FF80
FFE001FF80
FFE001FF80
FFE001FF80
FFE001FF80
FFE001FF80
FFE001FF80
FFE0000000
FFE0000000
FFE0000000
FFF0000000
FFFFFFF000
7FFFFFF800
3FFFFFFC00
3FFFFFFE00
1FFFFFFF00
0FFFFFFF00
07FFFFFF80
03FFFFFF80
01FFFFFF80
000003FF80
000001FF80
000001FF80
000001FF80
FFE001FF80
FFE001FF80
FFE001FF80
FFE001FF80
FFE001FF80
FFE001FF80
FFF003FF80
FFFFFFFF80
FFFFFFFF80
7FFFFFFF00
3FFFFFFE00
1FFFFFFC00
0FFFFFF800
07FFFFF000
03FFFFE000
01FFFFC000
ENDCHAR
STARTCHAR 0054
ENCODING 84
SWIDTH 326 0
DWIDTH 17 0
BBX 34 49 -9 3
BITMAP
FFFFFFFFC0
FFFFFFFFC0
FFFFFFFFC0
FFFFFFFFC0
FFFFFFFFC0
FFFFFFFFC0
FFFFFFFFC0
FFFFFFFFC0
FFFFFFFFC0
FFFFFFFFC0
FFFFFFFFC0
FFFFFFFFC0
FFCFFCFFC0
FFCFFCFFC0
FFCFFCFFC0
000FFC0000
000FFC0000
000FFC0000
000FFC0000
000FFC0000
000FFC0000
000FFC0000
000FFC0000
000FFC0000
000FFC0000
000FFC0000
000FFC0000
000FFC0000
000FFC0000
000FFC0000
000FFC0000
000FFC0000
000FFC0000
000FFC0000
000FFC0000
000FFC0000
000FFC0000
007FFF8000
007FFF8000
007FFF8000
007FFF8000
007FFF8000
007FFF8000
007FFF8000
007FFF8000
007FFF8000
007FFF8000
007FFF8000
007FFF8000
ENDCHAR
STARTCHAR 0055
ENCODING 85
SWIDTH 653 0
DWIDTH 34 0
BBX 39 49 -3 3
BITMAP
FFFF01FFFE
FFFF01FFFE
FFFF01FFFE
FFFF01FFFE
FFFF01FFFE
FFFF01FFFE
FFFF01FFFE
FFFF01FFFE
FFFF01FFFE
FFFF01FFFE
FFFF01FFFE
FFFF01FFFE
3FF8007FF0
3FF8007FF0
3FF8007FF0
3FF8007FF0
3FF8007FF0
3FF8007FF0
3FF8007FF0
3FF8007FF0
3FF8007FF0
3FF8007FF0
3FF8007FF0
3FF8007FF0
3FF8007FF0
3FF8007FF0
3FF8007FF0
3FF8007FF0
3FF8007FF0
3FF8007FF0
3FF8007FF0
3FF8007FF0
3FF8007FF0
3FF8007FF0
3FF8007FF0
3FF8007FF0
3FF8007FF0
3FFFFFFFF0
3FFFFFFFF0
3FFFFFFFF0
1FFFFFFFF0
0FFFFFFFE0
07FFFFFFC0
03FFFFFF80
01FFFFFF00
00FFFFFF00
007FFFFE00
003FFFFC00
001FFFF800
ENDCHAR
STARTCHAR 0056
ENCODING 86
SWIDTH 500 0
DWIDTH 26 0
BBX 37 49 -6 3
BITMAP
FFFF8FFFF8
FFFF8FFFF8
FFFF8FFFF8
FFFF8FFFF8
FFFF8FFFF8
FFFF8FFFF8
FFFF8FFFF8
FFFF8FFFF8
FFFF8FFFF8
FFFF8FFFF8
FFFF8FFFF8
FFFF8FFFF8
07FE03FF80
07FE03FF80
07FE03FF00
07FE03FF00
03FF07FF00
03FF07FF00
03FF07FE00
03FF07FE00
01FF0FFE00
01FF8FFE00
01FF8FFC00
01FF8FFC00
00FF8FFC00
00FFDFFC00
00FFDFF800
00FFDFF800
00FFDFF800
007FFFF800
007FFFF000
007FFFF000
007FFFF000
003FFFF000
003FFFE000
003FFFE000
003FFFE000
001FFFE000
001FFFC000
001FFFC000
001FFFC000
000FFFC000
000FFF8000
000FFF8000
000FFF8000
0007FF0000
0007FF0000
0007FF0000
0007FF0000
ENDCHAR
STARTCHAR 0057
ENCODING 87
SWIDTH 750 0
DWIDTH 39 0
BBX 48 49 -5 4
BITMAP
FFFF0FE0FFFF
FFFF0FE0FFFF
FFFF0FE0FFFF
FFFF0FE0FFFF
FFFF0FF0FFFF
FFFF0FF0FFFF
FFFF1FF0FFFF
FFFF1FF0FFFF
FFFF1FF0FFFF
FFFF1FF8FFFF
FFFF1FF8FFFF
FFFF3FF8FFFF
0FF83FF83FF0
0FFC3FF83FF0
0FFC3FFC3FF0
0FFC3FFC3FF0
0FFC3FFC3FF0
0FFC7FFC7FF0
07FE7FFC7FE0
07FE7FFE7FE0
07FE7FFE7FE0
07FE7FFEFFE0
07FF7FFEFFE0
03FFFFFEFFC0
03FFFFFFFFC0
03FFFFFFFFC0
03FFFFFFFFC0
03FFFFFFFFC0
01FFFFFFFF80
01FFFFFFFF80
01FFFEFFFF80
01FFFEFFFF80
01FFFEFFFF80
01FFFEFFFF00
00FFFE7FFF00
00FFFC7FFF00
00FFFC7FFF00
00FFFC7FFF00
00FFFC7FFE00
007FFC3FFE00
007FFC3FFE00
007FF83FFE00
007FF83FFE00
007FF81FFC00
003FF81FFC00
003FF81FFC00
003FF01FFC00
003FF01FFC00
003FF00FFC00
ENDCHAR
STARTCHAR 0058
ENCODING 88
SWIDTH 730 0
DWIDTH 38 0
BBX 37 49 0 3
BITMAP
FFFF1FFFF8
FFFF1FFFF8
FFFF1FFFF8
FFFF1FFFF8
FFFF1FFFF8
FFFF1FFFF8
FFFF1FFFF8
FFFF1FFFF8
FFFF1FFFF8
FFFF1FFFF8
FFFF1FFFF8
FFFF1FFFF8
1FF801FF80
0FFC03FF00
07FE07FE00
07FE0FFE00
03FF0FFC00
03FF9FF800
01FFBFF800
00FFFFF000
00FFFFE000
007FFFC000
003FFFC000
003FFF8000
001FFF8000
003FFF8000
007FFFC000
007FFFE000
00FFFFE000
00FFFFF000
01FFBFF800
03FF9FF800
03FF0FFC00
07FE0FFE00
07FE07FE00
0FFC03FF00
1FFC03FF80
FFFF1FFFF8
FFFF1FFFF8
FFFF1FFFF8
FFFF1FFFF8
FFFF1FFFF8
FFFF1FFFF8
FFFF1FFFF8
FFFF1FFFF8
FFFF1FFFF8
FFFF1FFFF8
FFFF1FFFF8
FFFF1FFFF8
ENDCHAR
STARTCHAR 0059
ENCODING 89
SWIDTH 403 0
DWIDTH 21 0
BBX 34 49 -6 4
BITMAP
FFFE3FFFC0
FFFE3FFFC0
FFFE3FFFC0
FFFE3FFFC0
FFFE3FFFC0
FFFE3FFFC0
FFFE3FFFC0
FFFE3FFFC0
FFFE3FFFC0
FFFE3FFFC0
FFFE3FFFC0
FFFE3FFFC0
1FFC1FFC00
0FFC1FFC00
0FFE3FF800
07FE3FF800
07FE3FF000
03FF7FF000
03FF7FE000
01FFFFE000
01FFFFC000
00FFFFC000
00FFFF8000
00FFFF8000
007FFF0000
007FFF0000
003FFE0000
003FFE0000
001FFC0000
001FFC0000
001FFC0000
001FFC0000
001FFC0000
001FFC0000
001FFC0000
001FFC0000
001FFC0000
00FFFF8000
00FFFF8000
00FFFF8000
00FFFF8000
00FFFF8000
00FFFF8000
00FFFF8000
00FFFF8000
00FFFF8000
00FFFF8000
00FFFF8000
00FFFF8000
ENDCHAR
STARTCHAR 005A
ENCODING 90
SWIDTH 692 0
DWIDTH 36 0
BBX 35 49 0 4
BITMAP
FFFFFFFFC0
FFFFFFFFC0
FFFFFFFFC0
FFFFFFFFC0
FFFFFFFFC0
FFFFFFFFC0
FFFFFFFFC0
FFFFFFFFC0
FFFFFFFFC0
FFFFFFFFC0
FFFFFFFFC0
FFFFFFFFC0
FF800FFFC0
FF801FFF80
00001FFF00
00003FFE00
00007FFE00
0000FFFC00
0001FFF800
0001FFF000
0003FFE000
0007FFE000
000FFFC000
001FFF8000
001FFF0000
003FFE0000
007FFE0000
00FFFC0000
01FFF80000
03FFF00000
03FFE00000
07FFC00000
0FFFC00000
1FFF800000
3FFF007FE0
3FFE007FE0
7FFC007FE0
FFFFFFFFE0
FFFFFFFFE0
FFFFFFFFE0
FFFFFFFFE0
FFFFFFFFE0
FFFFFFFFE0
FFFFFFFFE0
FFFFFFFFE0
FFFFFFFFE0
FFFFFFFFE0
FFFFFFFFE0
FFFFFFFFE0
ENDCHAR
STARTCHAR 005B
ENCODING 91
SWIDTH 230 0
DWIDTH 12 0
BBX 12 49 0 4
BITMAP
FFF0
FFF0
FFF0
FFF0
FFF0
FFF0
FFF0
FFF0
FFF0
FFF0
FF00
FF00
FF00
FF00
FF00
FF00
FF00
FF00
FF00
FF00
FF00
FF00
FF00
FF00
FF00
FF00
FF00
FF00
FF00
FF00
FF00
FF00
FF00
FF00
FF00
FF00
FF00
FF00
FF00
FF00
FFF0
FFF0
FFF0
FFF0
FFF0
FFF0
FFF0
FFF0
FFF0
ENDCHAR
STARTCHAR 005C
ENCODING 92
SWIDTH 500 0
DWIDTH 26 0
BBX 0 0 0 0
BITMAP
ENDCHAR
STARTCHAR 005D
ENCODING 93
SWIDTH 250 0
DWIDTH 13 0
BBX 12 49 0 4
BITMAP
FFF0
FFF0
FFF0
FFF0
FFF0
FFF0
FFF0
FFF0
FFF0
FFF0
0FF0
0FF0
0FF0
0FF0
0FF0
0FF0
0FF0
0FF0
0FF0
0FF0
0FF0
0FF0
0FF0
0FF0
0FF0
0FF0
0FF0
0FF0
0FF0
0FF0
0FF0
0FF0
0FF0
0FF0
0FF0
0FF0
0FF0
0FF0
0FF0
0FF0
7FF0
7FF0
7FF0
7FF0
7FF0
7FF0
7FF0
7FF0
7FF0
ENDCHAR
STARTCHAR 005E
ENCODING 94
SWIDTH 500 0
DWIDTH 26 0
BBX 0 0 0 0
BITMAP
ENDCHAR
STARTCHAR 005F
ENCODING 95
SWIDTH 500 0
DWIDTH 26 0
BBX 0 0 0 0
BITMAP
ENDCHAR
STARTCHAR 0060
ENCODING 96
SWIDTH 500 0
DWIDTH 26 0
BBX 0 0 0 0
BITMAP
ENDCHAR
STARTCHAR 0061
ENCODING 97
SWIDTH 788 0
DWIDTH 41 0
BBX 39 49 1 3
BITMAP
0003FF8000
0007FF8000
0007FFC000
0007FFC000
0007FFC000
000FFFC000
000FFFE000
000FFFE000
000FFFE000
001FFFE000
001FFFF000
001FFFF000
003FFFF000
003FFFF800
003FFFF800
003FFFF800
007FFFF800
007FFFFC00
007FEFFC00
00FFCFFC00
00FFCFFC00
00FFC7FE00
00FF87FE00
01FF87FE00
01FFFFFF00
01FFFFFF00
01FFFFFF00
03FFFFFF00
03FFFFFF80
03FFFFFF80
07FFFFFF80
07FFFFFF80
07FFFFFFC0
07FFFFFFC0
0FFE01FFC0
0FFE00FFE0
0FFE00FFE0
FFFF83FFFE
FFFF83FFFE
FFFF83FFFE
FFFF83FFFE
FFFF83FFFE
FFFF83FFFE
FFFF83FFFE
FFFF83FFFE
FFFF83FFFE
FFFF83FFFE
FFFF83FFFE
FFFF83FFFE
ENDCHAR
STARTCHAR 0062
ENCODING 98
SWIDTH 634 0
DWIDTH 33 0
BBX 32 49 0 3
BITMAP
FFFFFFC0
FFFFFFC0
FFFFFFE0
FFFFFFF0
FFFFFFF8
FFFFFFFC
FFFFFFFE
FFFFFFFF
FFFFFFFF
FFFFFFFF
FFFFFFFF
FFFC07FF
1FFC03FF
1FFC01FF
1FFC01FF
1FFC01FF
1FFC01FF
1FFC01FF
1FFC03FF
1FFFFFFF
1FFFFFFF
1FFFFFFE
1FFFFFFC
1FFFFFF8
1FFFFFF0
1FFFFFF8
1FFFFFFC
1FFFFFFE
1FFFFFFF
1FFFFFFF
1FFC03FF
1FFC01FF
1FFC01FF
1FFC01FF
1FFC01FF
1FFC01FF
1FFC03FF
FFFC03FF
FFFFFFFF
FFFFFFFF
FFFFFFFF
FFFFFFFF
FFFFFFFE
FFFFFFFC
FFFFFFF8
FFFFFFF0
FFFFFFE0
FFFFFFC0
FFFFFFC0
ENDCHAR
STARTCHAR 0063
ENCODING 99
SWIDTH 673 0
DWIDTH 35 0
BBX 34 49 0 3
BITMAP
01FFFFE000
03FFFFF000
07FFFFF800
0FFFFFFC00
1FFFFFFE00
3FFFFFFF00
3FFFFFFF80
7FFFFFFF80
FFFFFFFFC0
FFFFFFFFC0
FFE000FFC0
FFC0007FC0
FFC0007FC0
FFC0007FC0
FFC0007FC0
FFC0007FC0
FFC0007FC0
FFC0000000
FFC0000000
FFC0000000
FFC0000000
FFC0000000
FFC0000000
FFC0000000
FFC0000000
FFC0000000
FFC0000000
FFC0000000
FFC0000000
FFC0000000
FFC0000000
FFC0007FC0
FFC0007FC0
FFC0007FC0
FFC0007FC0
FFC0007FC0
FFC0007FC0
FFC000FFC0
FFE001FFC0
FFFFFFFFC0
FFFFFFFFC0
7FFFFFFF80
7FFFFFFF00
3FFFFFFF00
1FFFFFFE00
0FFFFFFC00
07FFFFF800
03FFFFF000
01FFFFE000
ENDCHAR
STARTCHAR 0064
ENCODING 100
SWIDTH 673 0
DWIDTH 35 0
BBX 34 49 0 3
BITMAP
FFFFFFF000
FFFFFFF800
FFFFFFFC00
FFFFFFFE00
FFFFFFFE00
FFFFFFFF00
FFFFFFFF80
FFFFFFFFC0
FFFFFFFFC0
FFFFFFFFC0
FFFFFFFFC0
FFF801FFC0
1FF801FFC0
1FF800FFC0
1FF800FFC0
1FF800FFC0
1FF800FFC0
1FF800FFC0
1FF800FFC0
1FF800FFC0
1FF800FFC0
1FF800FFC0
1FF800FFC0
1FF800FFC0
1FF800FFC0
1FF800FFC0
1FF800FFC0
1FF800FFC0
1FF800FFC0
1FF800FFC0
1FF800FFC0
1FF800FFC0
1FF800FFC0
1FF800FFC0
1FF800FFC0
1FF800FFC0
1FF801FFC0
FFF803FFC0
FFFFFFFFC0
FFFFFFFFC0
FFFFFFFFC0
FFFFFFFFC0
FFFFFFFF80
FFFFFFFF00
FFFFFFFE00
FFFFFFFC00
FFFFFFF800
FFFFFFF000
FFFFFFF000
ENDCHAR
STARTCHAR 0065
ENCODING 101
SWIDTH 653 0
DWIDTH 34 0
BBX 34 49 0 3
BITMAP
FFFFFFFFC0
FFFFFFFFC0
FFFFFFFFC0
FFFFFFFFC0
FFFFFFFFC0
FFFFFFFFC0
FFFFFFFFC0
FFFFFFFFC0
FFFFFFFFC0
FFFFFFFFC0
FFFFFFFFC0
FFFFFFFFC0
1FF801FFC0
1FF801FFC0
1FF801FFC0
1FF8000000
1FF8000000
1FF8000000
1FF8000000
1FFFFE0000
1FFFFE0000
1FFFFE0000
1FFFFE0000
1FFFFE0000
1FFFFE0000
1FFFFE0000
1FFFFE0000
1FFFFE0000
1FFFFE0000
1FFFFE0000
1FF8000000
1FF8000000
1FF8000000
1FF8000000
1FF801FFC0
1FF801FFC0
1FF801FFC0
FFFFFFFFC0
FFFFFFFFC0
FFFFFFFFC0
FFFFFFFFC0
FFFFFFFFC0
FFFFFFFFC0
FFFFFFFFC0
FFFFFFFFC0
FFFFFFFFC0
FFFFFFFFC0
FFFFFFFFC0
FFFFFFFFC0
ENDCHAR
STARTCHAR 0066
ENCODING 102
SWIDTH 461 0
DWIDTH 24 0
BBX 35 49 0 3
BITMAP
FFFFFFFFE0
FFFFFFFFE0
FFFFFFFFE0
FFFFFFFFE0
FFFFFFFFE0
FFFFFFFFE0
FFFFFFFFE0
FFFFFFFFE0
FFFFFFFFE0
FFFFFFFFE0
FFFFFFFFE0
FFFFFFFFE0
1FF800FFE0
1FF800FFE0
1FF800FFE0
1FF8000000
1FF8000000
1FF8000000
1FF8000000
1FFFFF0000
1FFFFF0000
1FFFFF0000
1FFFFF0000
1FFFFF0000
1FFFFF0000
1FFFFF0000
1FFFFF0000
1FFFFF0000
1FFFFF0000
1FF8000000
1FF8000000
1FF8000000
1FF8000000
1FF8000000
1FF8000000
1FF8000000
1FF8000000
FFFF800000
FFFF800000
FFFF800000
FFFF800000
FFFF800000
FFFF800000
FFFF800000
FFFF800000
FFFF800000
FFFF800000
FFFF800000
FFFF800000
ENDCHAR
STARTCHAR 0067
ENCODING 103
SWIDTH 653 0
DWIDTH 34 0
BBX 33 49 0 2
BITMAP
01FFFFE000
03FFFFF000
07FFFFF800
0FFFFFFC00
1FFFFFFE00
3FFFFFFF00
7FFFFFFF80
FFFFFFFF80
FFFFFFFF80
FFFFFFFF80
FFFFFFFF80
FFFFFFFF80
FFE001FF80
FFC001FF80
FFC001FF80
FFC0000000
FFC0000000
FFC0000000
FFC0000000
FFC0000000
FFC0000000
FFC00FFF80
FFC00FFF80
FFC00FFF80
FFC00FFF80
FFC00FFF80
FFC00FFF80
FFC00FFF80
FFC00FFF80
FFC00FFF80
FFC001FF80
FFC001FF80
FFC001FF80
FFC001FF80
FFC001FF80
FFC001FF80
FFE001FF80
FFFFFFFF80
FFFFFFFF80
FFFFFFFF80
FFFFFFFF80
FFFFFFFF80
7FFFFFFF80
3FFFFFFF80
1FFFFFFF80
0FFFFFFF80
07FFFFFF80
03FFFFFF80
01FFFFFF80
ENDCHAR
STARTCHAR 0068
ENCODING 104
SWIDTH 788 0
DWIDTH 41 0
BBX 40 49 1 3
BITMAP
FFFF83FFFF
FFFF83FFFF
FFFF83FFFF
FFFF83FFFF
FFFF83FFFF
FFFF83FFFF
FFFF83FFFF
FFFF83FFFF
FFFF83FFFF
FFFF83FFFF
FFFF83FFFF
FFFF83FFFF
1FFC003FF0
1FFC003FF0
1FFC003FF0
1FFC003FF0
1FFC003FF0
1FFC003FF0
1FFC003FF0
1FFFFFFFF0
1FFFFFFFF0
1FFFFFFFF0
1FFFFFFFF0
1FFFFFFFF0
1FFFFFFFF0
1FFFFFFFF0
1FFFFFFFF0
1FFFFFFFF0
1FFFFFFFF0
1FFFFFFFF0
1FFC003FF0
1FFC003FF0
1FFC003FF0
1FFC003FF0
1FFC003FF0
1FFC003FF0
1FFC003FF0
FFFF83FFFF
FFFF83FFFF
FFFF83FFFF
FFFF83FFFF
FFFF83FFFF
FFFF83FFFF
FFFF83FFFF
FFFF83FFFF
FFFF83FFFF
FFFF83FFFF
FFFF83FFFF
FFFF83FFFF
ENDCHAR
STARTCHAR 0069
ENCODING 105
SWIDTH 326 0
DWIDTH 17 0
BBX 16 49 1 4
BITMAP
FFFE
FFFE
FFFE
FFFE
FFFE
FFFE
FFFE
FFFE
FFFE
FFFE
FFFE
3FF8
3FF8
3FF8
3FF8
3FF8
3FF8
3FF8
3FF8
3FF8
3FF8
3FF8
3FF8
3FF8
3FF8
3FF8
3FF8
3FF8
3FF8
3FF8
3FF8
3FF8
3FF8
3FF8
3FF8
3FF8
3FF8
FFFF
FFFF
FFFF
FFFF
FFFF
FFFF
FFFF
FFFF
FFFF
FFFF
FFFF
FFFF
ENDCHAR
STARTCHAR 006A
ENCODING 106
SWIDTH 500 0
DWIDTH 26 0
BBX 30 49 0 3
BITMAP
001FFFFC
001FFFFC
001FFFFC
001FFFFC
001FFFFC
001FFFFC
001FFFFC
001FFFFC
001FFFFC
001FFFFC
001FFFFC
001FFFFC
0001FFC0
0001FFC0
0001FFC0
0001FFC0
0001FFC0
0001FFC0
0001FFC0
0001FFC0
0001FFC0
0001FFC0
0001FFC0
0001FFC0
0001FFC0
0001FFC0
0001FFC0
0001FFC0
0001FFC0
0001FFC0
FFE1FFC0
FFE1FFC0
FFE1FFC0
FFE1FFC0
FFE1FFC0
FFE1FFC0
FFE1FFC0
FFFFFFC0
FFFFFFC0
FFFFFFC0
FFFFFFC0
FFFFFFC0
7FFFFF80
3FFFFF00
1FFFFE00
0FFFFE00
07FFFC00
03FFF800
01FFF000
ENDCHAR
STARTCHAR 006B
ENCODING 107
SWIDTH 788 0
DWIDTH 41 0
BBX 40 49 1 3
BITMAP
FFFF01FFFF
FFFF01FFFF
FFFF01FFFF
FFFF01FFFF
FFFF01FFFF
FFFF01FFFF
FFFF01FFFF
FFFF01FFFF
FFFF01FFFF
FFFF01FFFF
FFFF01FFFF
FFFF01FFFF
3FF8003FF8
3FF8007FF0
3FF800FFE0
3FF801FFC0
3FF803FF80
3FF807FF00
3FF80FFE00
3FF81FFC00
3FF83FF800
3FF87FF000
3FF8FFE000
3FF9FFE000
3FFBFFF000
3FFFFFF000
3FFFFFF800
3FFFFFFC00
3FFFFFFC00
3FFFF7FE00
3FFFE7FF00
3FFFC3FF00
3FFF81FF80
3FFF01FFC0
3FFE00FFE0
3FFC007FE0
3FFC003FF0
FFFF01FFFF
FFFF01FFFF
FFFF01FFFF
FFFF01FFFF
FFFF01FFFF
FFFF01FFFF
FFFF01FFFF
FFFF01FFFF
FFFF01FFFF
FFFF01FFFF
FFFF01FFFF
FFFF01FFFF
ENDCHAR
STARTCHAR 006C
ENCODING 108
SWIDTH 596 0
DWIDTH 31 0
BBX 31 49 0 3
BITMAP
FFFF0000
FFFF0000
FFFF0000
FFFF0000
FFFF0000
FFFF0000
FFFF0000
FFFF0000
FFFF0000
FFFF0000
FFFF0000
FFFF0000
3FF80000
3FF80000
3FF80000
3FF80000
3FF80000
3FF80000
3FF80000
3FF80000
3FF80000
3FF80000
3FF80000
3FF80000
3FF80000
3FF80000
3FF80000
3FF80000
3FF80000
3FF80000
3FF80000
3FF80000
3FF80000
3FF80000
3FF80FFE
3FF80FFE
3FF80FFE
FFFFFFFE
FFFFFFFE
FFFFFFFE
FFFFFFFE
FFFFFFFE
FFFFFFFE
FFFFFFFE
FFFFFFFE
FFFFFFFE
FFFFFFFE
FFFFFFFE
FFFFFFFE
ENDCHAR
STARTCHAR 006D
ENCODING 109
SWIDTH 846 0
DWIDTH 44 0
BBX 43 49 0 3
BITMAP
FFFC0003FFE0
FFFC0003FFE0
FFFE0007FFE0
FFFE0007FFE0
FFFF000FFFE0
FFFF000FFFE0
FFFF801FFFE0
FFFF803FFFE0
FFFFC03FFFE0
FFFFC07FFFE0
FFFFE07FFFE0
FFFFE0FFFFE0
1FFFF0FFFF00
1FFFF1FFFF00
1FFFF9FFFF00
1FFFFBFFFF00
1FFFFFFFFF00
1FFFFFFFFF00
1FFFFFFFFF00
1FFFFFFFFF00
1FFFFFFFFF00
1FFFFFFFFF00
1FFFFFFFFF00
1FFFFFFFFF00
1FFBFFFFFF00
1FFBFFFBFF00
1FF9FFF3FF00
1FF9FFF3FF00
1FF8FFE3FF00
1FF8FFE3FF00
1FF87FC3FF00
1FF83F83FF00
1FF83F83FF00
1FF80003FF00
1FF80003FF00
1FF80003FF00
1FF80003FF00
FFFE000FFFE0
FFFE000FFFE0
FFFE000FFFE0
FFFE000FFFE0
FFFE000FFFE0
FFFE000FFFE0
FFFE000FFFE0
FFFE000FFFE0
FFFE000FFFE0
FFFE000FFFE0
FFFE000FFFE0
FFFE000FFFE0
ENDCHAR
STARTCHAR 006E
ENCODING 110
SWIDTH 692 0
DWIDTH 36 0
BBX 38 49 0 4
BITMAP
FFF801FFFC
FFFC01FFFC
FFFC01FFFC
FFFE01FFFC
FFFE01FFFC
FFFF01FFFC
FFFF01FFFC
FFFF81FFFC
FFFF81FFFC
FFFFC1FFFC
FFFFC1FFFC
FFFFE1FFFC
1FFFE07FF0
1FFFF07FF0
1FFFF07FF0
1FFFF87FF0
1FFFF87FF0
1FFFFC7FF0
1FFFFC7FF0
1FFFFE7FF0
1FFFFF7FF0
1FFFFF7FF0
1FFFFFFFF0
1FFFFFFFF0
1FFFFFFFF0
1FFBFFFFF0
1FFBFFFFF0
1FF9FFFFF0
1FF9FFFFF0
1FF8FFFFF0
1FF8FFFFF0
1FF87FFFF0
1FF87FFFF0
1FF83FFFF0
1FF83FFFF0
1FF81FFFF0
1FF81FFFF0
FFFF0FFFF0
FFFF0FFFF0
FFFF07FFF0
FFFF07FFF0
FFFF03FFF0
FFFF03FFF0
FFFF01FFF0
FFFF01FFF0
FFFF00FFF0
FFFF00FFF0
FFFF007FF0
FFFF007FF0
ENDCHAR
STARTCHAR 006F
ENCODING 111
SWIDTH 692 0
DWIDTH 36 0
BBX 35 49 0 3
BITMAP
01FFFFF800
03FFFFFC00
07FFFFFE00
07FFFFFE00
0FFFFFFF00
1FFFFFFF80
3FFFFFFFC0
7FFFFFFFE0
7FFFFFFFE0
FFFFFFFFE0
FFF001FFE0
FFE000FFE0
FFC000FFE0
FFC000FFE0
FFC000FFE0
FFC000FFE0
FFC000FFE0
FFC000FFE0
FFC000FFE0
FFC000FFE0
FFC000FFE0
FFC000FFE0
FFC000FFE0
FFC000FFE0
FFC000FFE0
FFC000FFE0
FFC000FFE0
FFC000FFE0
FFC000FFE0
FFC000FFE0
FFC000FFE0
FFC000FFE0
FFC000FFE0
FFC000FFE0
FFC000FFE0
FFC000FFE0
FFE001FFE0
FFF001FFE0
FFFFFFFFE0
FFFFFFFFE0
FFFFFFFFE0
7FFFFFFFE0
3FFFFFFFC0
1FFFFFFF80
1FFFFFFF00
0FFFFFFE00
07FFFFFE00
03FFFFFC00
01FFFFF800
ENDCHAR
STARTCHAR 0070
ENCODING 112
SWIDTH 692 0
DWIDTH 36 0
BBX 34 49 1 3
BITMAP
FFFFFFE000
FFFFFFF000
FFFFFFF800
FFFFFFF800
FFFFFFFC00
FFFFFFFE00
FFFFFFFF00
FFFFFFFF00
FFFFFFFF80
FFFFFFFFC0
FFF001FFC0
FFF000FFC0
FFF0007FC0
3FF0007FC0
3FF0007FC0
3FF0007FC0
3FF0007FC0
3FF0007FC0
3FF0007FC0
3FF0007FC0
3FF0007FC0
3FF000FFC0
3FF001FFC0
3FFFFFFFC0
3FFFFFFF80
3FFFFFFF00
3FFFFFFE00
3FFFFFFE00
3FFFFFFC00
3FFFFFF800
3FFFFFF000
3FFFFFE000
3FF8000000
3FF8000000
3FF8000000
3FF8000000
3FF8000000
FFFF000000
FFFF000000
FFFF000000
FFFF000000
FFFF000000
FFFF000000
FFFF000000
FFFF000000
FFFF000000
FFFF000000
FFFF000000
FFFF000000
ENDCHAR
STARTCHAR 0071
ENCODING 113
SWIDTH 750 0
DWIDTH 39 0
BBX 38 50 0 2
BITMAP
01FFFFF800
01FFFFFC00
03FFFFFE00
07FFFFFE00
0FFFFFFF00
1FFFFFFF80
3FFFFFFFC0
3FFFFFFFE0
7FFFFFFFF0
FFFFFFFFF0
FFF800FFF0
FFF0007FF0
FFE0003FF0
FFE0003FF0
FFE0003FF0
FFE0003FF0
FFE0003FF0
FFE0003FF0
FFE0003FF0
FFE0003FF0
FFE0003FF0
FFE0003FF0
FFE0003FF0
FFE0003FF0
FFE0003FF0
FFE0003FF0
FFE0003FF0
FFE0003FF0
FFE0003FF0
FFE0003FF0
FFE0003FF0
FFE0003FF0
FFE0003FF0
FFE0003FF0
FFE0003FF0
FFE0007FF0
FFF000FFF0
FFF801FFF0
FFFFFFFFF0
FFFFFFFFF0
7FFFFFFFE0
3FFFFFFFC0
1FFFFFFFE0
1FFFFFFFE0
0FFFFFFFF0
07FFFFFFF8
03FFFFFDFC
01FFFFF8F8
0000000070
0000000020
ENDCHAR
STARTCHAR 0072
ENCODING 114
SWIDTH 673 0
DWIDTH 35 0
BBX 33 49 0 3
BITMAP
FFFFFF8000
FFFFFFC000
FFFFFFF000
FFFFFFF800
FFFFFFFC00
FFFFFFFE00
FFFFFFFF00
FFFFFFFF00
FFFFFFFF00
FFFFFFFF00
FFF81FFF00
FFF80FFF00
3FF807FF00
3FF807FF00
3FF807FF00
3FF807FF00
3FF807FF00
3FF80FFF00
3FF81FFF00
3FFFFFFF00
3FFFFFFF00
3FFFFFFF00
3FFFFFFF00
3FFFFFFE00
3FFFFFF800
3FFFFFF000
3FFFFFE000
3FFFFFE000
3FFFFFE000
3FF83FF000
3FF83FF000
3FF83FF800
3FF81FF800
3FF81FFC00
3FF80FFC00
3FF80FFC00
3FF807FE00
FFFE1FFF80
FFFE1FFF80
FFFE1FFF80
FFFE1FFF80
FFFE1FFF80
FFFE1FFF80
FFFE1FFF80
FFFE1FFF80
FFFE1FFF80
FFFE1FFF80
FFFE1FFF80
FFFE1FFF80
ENDCHAR
STARTCHAR 0073
ENCODING 115
SWIDTH 634 0
DWIDTH 33 0
BBX 33 49 0 2
BITMAP
00FFFFC000
01FFFFE000
03FFFFF000
07FFFFF800
0FFFFFFC00
1FFFFFFE00
3FFFFFFF00
3FFFFFFF80
7FFFFFFF80
FFF003FF80
FFE001FF80
FFE001FF80
FFE001FF80
FFE001FF80
FFE001FF80
FFE001FF80
FFE0000000
FFE0000000
FFE0000000
FFF0000000
FFFFFFF000
7FFFFFF800
3FFFFFFC00
3FFFFFFE00
1FFFFFFF00
0FFFFFFF00
07FFFFFF80
03FFFFFF80
01FFFFFF80
000003FF80
000001FF80
000001FF80
000001FF80
FFE001FF80
FFE001FF80
FFE001FF80
FFE001FF80
FFE001FF80
FFE001FF80
FFF003FF80
FFFFFFFF80
FFFFFFFF80
7FFFFFFF00
3FFFFFFE00
1FFFFFFC00
0FFFFFF800
07FFFFF000
03FFFFE000
01FFFFC000
ENDCHAR
STARTCHAR 0074
ENCODING 116
SWIDTH 326 0
DWIDTH 17 0
BBX 34 49 -9 3
BITMAP
FFFFFFFFC0
FFFFFFFFC0
FFFFFFFFC0
FFFFFFFFC0
FFFFFFFFC0
FFFFFFFFC0
FFFFFFFFC0
FFFFFFFFC0
FFFFFFFFC0
FFFFFFFFC0
FFFFFFFFC0
FFFFFFFFC0
FFCFFCFFC0
FFCFFCFFC0
FFCFFCFFC0
000FFC0000
000FFC0000
000FFC0000
000FFC0000
000FFC0000
000FFC0000
000FFC0000
000FFC0000
000FFC0000
000FFC0000
000FFC0000
000FFC0000
000FFC0000
000FFC0000
000FFC0000
000FFC0000
000FFC0000
000FFC0000
000FFC0000
000FFC0000
000FFC0000
000FFC0000
007FFF8000
007FFF8000
007FFF8000
007FFF8000
007FFF8000
007FFF8000
007FFF8000
007FFF8000
007FFF8000
007FFF8000
007FFF8000
007FFF8000
ENDCHAR
STARTCHAR 0075
ENCODING 117
SWIDTH 653 0
DWIDTH 34 0
BBX 39 49 -3 3
BITMAP
FFFF01FFFE
FFFF01FFFE
FFFF01FFFE
FFFF01FFFE
FFFF01FFFE
FFFF01FFFE
FFFF01FFFE
FFFF01FFFE
FFFF01FFFE
FFFF01FFFE
FFFF01FFFE
FFFF01FFFE
3FF8007FF0
3FF8007FF0
3FF8007FF0
3FF8007FF0
3FF8007FF0
3FF8007FF0
3FF8007FF0
3FF8007FF0
3FF8007FF0
3FF8007FF0
3FF8007FF0
3FF8007FF0
3FF8007FF0
3FF8007FF0
3FF8007FF0
3FF8007FF0
3FF8007FF0
3FF8007FF0
3FF8007FF0
3FF8007FF0
3FF8007FF0
3FF8007FF0
3FF8007FF0
3FF8007FF0
3FF8007FF0
3FFFFFFFF0
3FFFFFFFF0
3FFFFFFFF0
1FFFFFFFF0
0FFFFFFFE0
07FFFFFFC0
03FFFFFF80
01FFFFFF00
00FFFFFF00
007FFFFE00
003FFFFC00
001FFFF800
ENDCHAR
STARTCHAR 0076
ENCODING 118
SWIDTH 500 0
DWIDTH 26 0
BBX 37 49 -6 3
BITMAP
FFFF8FFFF8
FFFF8FFFF8
FFFF8FFFF8
FFFF8FFFF8
FFFF8FFFF8
FFFF8FFFF8
FFFF8FFFF8
FFFF8FFFF8
FFFF8FFFF8
FFFF8FFFF8
FFFF8FFFF8
FFFF8FFFF8
07FE03FF80
07FE03FF80
07FE03FF00
07FE03FF00
03FF07FF00
03FF07FF00
03FF07FE00
03FF07FE00
01FF0FFE00
01FF8FFE00
01FF8FFC00
01FF8FFC00
00FF8FFC00
00FFDFFC00
00FFDFF800
00FFDFF800
00FFDFF800
007FFFF800
007FFFF000
007FFFF000
007FFFF000
003FFFF000
003FFFE000
003FFFE000
003FFFE000
001FFFE000
001FFFC000
001FFFC000
001FFFC000
000FFFC000
000FFF8000
000FFF8000
000FFF8000
0007FF0000
0007FF0000
0007FF0000
0007FF0000
ENDCHAR
STARTCHAR 0077
ENCODING 119
SWIDTH 750 0
DWIDTH 39 0
BBX 48 49 -5 4
BITMAP
FFFF0FE0FFFF
FFFF0FE0FFFF
FFFF0FE0FFFF
FFFF0FE0FFFF
FFFF0FF0FFFF
FFFF0FF0FFFF
FFFF1FF0FFFF
FFFF1FF0FFFF
FFFF1FF0FFFF
FFFF1FF8FFFF
FFFF1FF8FFFF
FFFF3FF8FFFF
0FF83FF83FF0
0FFC3FF83FF0
0FFC3FFC3FF0
0FFC3FFC3FF0
0FFC3FFC3FF0
0FFC7FFC7FF0
07FE7FFC7FE0
07FE7FFE7FE0
07FE7FFE7FE0
07FE7FFEFFE0
07FF7FFEFFE0
03FFFFFEFFC0
03FFFFFFFFC0
03FFFFFFFFC0
03FFFFFFFFC0
03FFFFFFFFC0
01FFFFFFFF80
01FFFFFFFF80
01FFFEFFFF80
01FFFEFFFF80
01FFFEFFFF80
01FFFEFFFF00
00FFFE7FFF00
00FFFC7FFF00
00FFFC7FFF00
00FFFC7FFF00
00FFFC7FFE00
007FFC3FFE00
007FFC3FFE00
007FF83FFE00
007FF83FFE00
007FF81FFC00
003FF81FFC00
003FF81FFC00
003FF01FFC00
003FF01FFC00
003FF00FFC00
ENDCHAR
STARTCHAR 0078
ENCODING 120
SWIDTH 730 0
DWIDTH 38 0
BBX 37 49 0 3
BITMAP
FFFF1FFFF8
FFFF1FFFF8
FFFF1FFFF8
FFFF1FFFF8
FFFF1FFFF8
FFFF1FFFF8
FFFF1FFFF8
FFFF1FFFF8
FFFF1FFFF8
FFFF1FFFF8
FFFF1FFFF8
FFFF1FFFF8
1FF801FF80
0FFC03FF00
07FE07FE00
07FE0FFE00
03FF0FFC00
03FF9FF800
01FFBFF800
00FFFFF000
00FFFFE000
007FFFC000
003FFFC000
003FFF8000
001FFF8000
003FFF8000
007FFFC000
007FFFE000
00FFFFE000
00FFFFF000
01FFBFF800
03FF9FF800
03FF0FFC00
07FE0FFE00
07FE07FE00
0FFC03FF00
1FFC03FF80
FFFF1FFFF8
FFFF1FFFF8
FFFF1FFFF8
FFFF1FFFF8
FFFF1FFFF8
FFFF1FFFF8
FFFF1FFFF8
FFFF1FFFF8
FFFF1FFFF8
FFFF1FFFF8
FFFF1FFFF8
FFFF1FFFF8
ENDCHAR
STARTCHAR 0079
ENCODING 121
SWIDTH 403 0
DWIDTH 21 0
BBX 34 49 -6 4
BITMAP
FFFE3FFFC0
FFFE3FFFC0
FFFE3FFFC0
FFFE3FFFC0
FFFE3FFFC0
FFFE3FFFC0
FFFE3FFFC0
FFFE3FFFC0
FFFE3FFFC0
FFFE3FFFC0
FFFE3FFFC0
FFFE3FFFC0
1FFC1FFC00
0FFC1FFC00
0FFE3FF800
07FE3FF800
07FE3FF000
03FF7FF000
03FF7FE000
01FFFFE000
01FFFFC000
00FFFFC000
00FFFF8000
00FFFF8000
007FFF0000
007FFF0000
003FFE0000
003FFE0000
001FFC0000
001FFC0000
001FFC0000
001FFC0000
001FFC0000
001FFC0000
001FFC0000
001FFC0000
001FFC0000
00FFFF8000
00FFFF8000
00FFFF8000
00FFFF8000
00FFFF8000
00FFFF8000
00FFFF8000
00FFFF8000
00FFFF8000
00FFFF8000
00FFFF8000
00FFFF8000
ENDCHAR
STARTCHAR 007A
ENCODING 122
SWIDTH 692 0
DWIDTH 36 0
BBX 35 49 0 4
BITMAP
FFFFFFFFC0
FFFFFFFFC0
FFFFFFFFC0
FFFFFFFFC0
FFFFFFFFC0
FFFFFFFFC0
FFFFFFFFC0
FFFFFFFFC0
FFFFFFFFC0
FFFFFFFFC0
FFFFFFFFC0
FFFFFFFFC0
FF800FFFC0
FF801FFF80
00001FFF00
00003FFE00
00007FFE00
0000FFFC00
0001FFF800
0001FFF000
0003FFE000
0007FFE000
000FFFC000
001FFF8000
001FFF0000
003FFE0000
007FFE0000
00FFFC0000
01FFF80000
03FFF00000
03FFE00000
07FFC00000
0FFFC00000
1FFF800000
3FFF007FE0
3FFE007FE0
7FFC007FE0
FFFFFFFFE0
FFFFFFFFE0
FFFFFFFFE0
FFFFFFFFE0
FFFFFFFFE0
FFFFFFFFE0
FFFFFFFFE0
FFFFFFFFE0
FFFFFFFFE0
FFFFFFFFE0
FFFFFFFFE0
FFFFFFFFE0
ENDCHAR
STARTCHAR 007B
ENCODING 123
SWIDTH 500 0
DWIDTH 26 0
BBX 0 0 0 0
BITMAP
ENDCHAR
STARTCHAR 007C
ENCODING 124
SWIDTH 500 0
DWIDTH 26 0
BBX 0 0 0 0
BITMAP
ENDCHAR
STARTCHAR 007D
ENCODING 125
SWIDTH 500 0
DWIDTH 26 0
BBX 0 0 0 0
BITMAP
ENDCHAR
STARTCHAR 007E
ENCODING 126
SWIDTH 500 0
DWIDTH 26 0
BBX 0 0 0 0
BITMAP
ENDCHAR
STARTCHAR 00A0
ENCODING 160
SWIDTH 38 0
DWIDTH 2 0
BBX 0 0 0 0
BITMAP
ENDCHAR
STARTCHAR 00A1
ENCODING 161
SWIDTH 500 0
DWIDTH 26 0
BBX 0 0 0 0
BITMAP
ENDCHAR
STARTCHAR 00A2
ENCODING 162
SWIDTH 500 0
DWIDTH 26 0
BBX 0 0 0 0
BITMAP
ENDCHAR
STARTCHAR 00A3
ENCODING 163
SWIDTH 500 0
DWIDTH 26 0
BBX 0 0 0 0
BITMAP
ENDCHAR
STARTCHAR 00A4
ENCODING 164
SWIDTH 500 0
DWIDTH 26 0
BBX 0 0 0 0
BITMAP
ENDCHAR
STARTCHAR 00A5
ENCODING 165
SWIDTH 500 0
DWIDTH 26 0
BBX 0 0 0 0
BITMAP
ENDCHAR
STARTCHAR 00A6
ENCODING 166
SWIDTH 500 0
DWIDTH 26 0
BBX 0 0 0 0
BITMAP
ENDCHAR
STARTCHAR 00A7
ENCODING 167
SWIDTH 500 0
DWIDTH 26 0
BBX 0 0 0 0
BITMAP
ENDCHAR
STARTCHAR 00A8
ENCODING 168
SWIDTH 500 0
DWIDTH 26 0
BBX 0 0 0 0
BITMAP
ENDCHAR
STARTCHAR 00A9
ENCODING 169
SWIDTH 500 0
DWIDTH 26 0
BBX 0 0 0 0
BITMAP
ENDCHAR
STARTCHAR 00AA
ENCODING 170
SWIDTH 500 0
DWIDTH 26 0
BBX 0 0 0 0
BITMAP
ENDCHAR
STARTCHAR 00AB
ENCODING 171
SWIDTH 500 0
DWIDTH 26 0
BBX 0 0 0 0
BITMAP
ENDCHAR
STARTCHAR 00AC
ENCODING 172
SWIDTH 500 0
DWIDTH 26 0
BBX 0 0 0 0
BITMAP
ENDCHAR
STARTCHAR 00AD
ENCODING 173
SWIDTH 500 0
DWIDTH 26 0
BBX 0 0 0 0
BITMAP
ENDCHAR
STARTCHAR 00AE
ENCODING 174
SWIDTH 500 0
DWIDTH 26 0
BBX 0 0 0 0
BITMAP
ENDCHAR
STARTCHAR 00AF
ENCODING 175
SWIDTH 38 0
DWIDTH 2 0
BBX 0 0 0 0
BITMAP
ENDCHAR
STARTCHAR 00B0
ENCODING 176
SWIDTH 500 0
DWIDTH 26 0
BBX 0 0 0 0
BITMAP
ENDCHAR
STARTCHAR 00B1
ENCODING 177
SWIDTH 500 0
DWIDTH 26 0
BBX 0 0 0 0
BITMAP
ENDCHAR
STARTCHAR 00B2
ENCODING 178
SWIDTH 500 0
DWIDTH 26 0
BBX 0 0 0 0
BITMAP
ENDCHAR
STARTCHAR 00B3
ENCODING 179
SWIDTH 500 0
DWIDTH 26 0
BBX 0 0 0 0
BITMAP
ENDCHAR
STARTCHAR 00B4
ENCODING 180
SWIDTH 500 0
DWIDTH 26 0
BBX 0 0 0 0
BITMAP
ENDCHAR
STARTCHAR 00B5
ENCODING 181
SWIDTH 500 0
DWIDTH 26 0
BBX 0 0 0 0
BITMAP
ENDCHAR
STARTCHAR 00B6
ENCODING 182
SWIDTH 500 0
DWIDTH 26 0
BBX 0 0 0 0
BITMAP
ENDCHAR
STARTCHAR 00B7
ENCODING 183
SWIDTH 38 0
DWIDTH 2 0
BBX 0 0 0 0
BITMAP
ENDCHAR
STARTCHAR 00B8
ENCODING 184
SWIDTH 500 0
DWIDTH 26 0
BBX 0 0 0 0
BITMAP
ENDCHAR
STARTCHAR 00B9
ENCODING 185
SWIDTH 500 0
DWIDTH 26 0
BBX 0 0 0 0
BITMAP
ENDCHAR
STARTCHAR 00BA
ENCODING 186
SWIDTH 500 0
DWIDTH 26 0
BBX 0 0 0 0
BITMAP
ENDCHAR
STARTCHAR 00BB
ENCODING 187
SWIDTH 500 0
DWIDTH 26 0
BBX 0 0 0 0
BITMAP
ENDCHAR
STARTCHAR 00BC
ENCODING 188
SWIDTH 500 0
DWIDTH 26 0
BBX 0 0 0 0
BITMAP
ENDCHAR
STARTCHAR 00BD
ENCODING 189
SWIDTH 500 0
DWIDTH 26 0
BBX 0 0 0 0
BITMAP
ENDCHAR
STARTCHAR 00BE
ENCODING 190
SWIDTH 500 0
DWIDTH 26 0
BBX 0 0 0 0
BITMAP
ENDCHAR
STARTCHAR 00BF
ENCODING 191
SWIDTH 500 0
DWIDTH 26 0
BBX 0 0 0 0
BITMAP
ENDCHAR
STARTCHAR 00C0
ENCODING 192
SWIDTH 500 0
DWIDTH 26 0
BBX 0 0 0 0
BITMAP
ENDCHAR
STARTCHAR 00C1
ENCODING 193
SWIDTH 500 0
DWIDTH 26 0
BBX 0 0 0 0
BITMAP
ENDCHAR
STARTCHAR 00C2
ENCODING 194
SWIDTH 500 0
DWIDTH 26 0
BBX 0 0 0 0
BITMAP
ENDCHAR
STARTCHAR 00C3
ENCODING 195
SWIDTH 500 0
DWIDTH 26 0
BBX 0 0 0 0
BITMAP
ENDCHAR
STARTCHAR 00C4
ENCODING 196
SWIDTH 500 0
DWIDTH 26 0
BBX 0 0 0 0
BITMAP
ENDCHAR
STARTCHAR 00C5
ENCODING 197
SWIDTH 500 0
DWIDTH 26 0
BBX 0 0 0 0
BITMAP
ENDCHAR
STARTCHAR 00C6
ENCODING 198
SWIDTH 500 0
DWIDTH 26 0
BBX 0 0 0 0
BITMAP
ENDCHAR
STARTCHAR 00C7
ENCODING 199
SWIDTH 500 0
DWIDTH 26 0
BBX 0 0 0 0
BITMAP
ENDCHAR
STARTCHAR 00C8
ENCODING 200
SWIDTH 500 0
DWIDTH 26 0
BBX 0 0 0 0
BITMAP
ENDCHAR
STARTCHAR 00C9
ENCODING 201
SWIDTH 500 0
DWIDTH 26 0
BBX 0 0 0 0
BITMAP
ENDCHAR
STARTCHAR 00CA
ENCODING 202
SWIDTH 500 0
DWIDTH 26 0
BBX 0 0 0 0
BITMAP
ENDCHAR
STARTCHAR 00CB
ENCODING 203
SWIDTH 500 0
DWIDTH 26 0
BBX 0 0 0 0
BITMAP
ENDCHAR
STARTCHAR 00CC
ENCODING 204
SWIDTH 500 0
DWIDTH 26 0
BBX 0 0 0 0
BITMAP
ENDCHAR
STARTCHAR 00CD
ENCODING 205
SWIDTH 500 0
DWIDTH 26 0
BBX 0 0 0 0
BITMAP
ENDCHAR
STARTCHAR 00CE
ENCODING 206
SWIDTH 500 0
DWIDTH 26 0
BBX 0 0 0 0
BITMAP
ENDCHAR
STARTCHAR 00CF
ENCODING 207
SWIDTH 500 0
DWIDTH 26 0
BBX 0 0 0 0
BITMAP
ENDCHAR
STARTCHAR 00D0
ENCODING 208
SWIDTH 500 0
DWIDTH 26 0
BBX 0 0 0 0
BITMAP
ENDCHAR
STARTCHAR 00D1
ENCODING 209
SWIDTH 500 0
DWIDTH 26 0
BBX 0 0 0 0
BITMAP
ENDCHAR
STARTCHAR 00D2
ENCODING 210
SWIDTH 38 0
DWIDTH 2 0
BBX 0 0 0 0
BITMAP
ENDCHAR
STARTCHAR 00D3
ENCODING 211
SWIDTH 500 0
DWIDTH 26 0
BBX 0 0 0 0
BITMAP
ENDCHAR
STARTCHAR 00D4
ENCODING 212
SWIDTH 500 0
DWIDTH 26 0
BBX 0 0 0 0
BITMAP
ENDCHAR
STARTCHAR 00D5
ENCODING 213
SWIDTH 500 0
DWIDTH 26 0
BBX 0 0 0 0
BITMAP
ENDCHAR
STARTCHAR 00D6
ENCODING 214
SWIDTH 500 0
DWIDTH 26 0
BBX 0 0 0 0
BITMAP
ENDCHAR
STARTCHAR 00D7
ENCODING 215
SWIDTH 500 0
DWIDTH 26 0
BBX 0 0 0 0
BITMAP
ENDCHAR
STARTCHAR 00D8
ENCODING 216
SWIDTH 500 0
DWIDTH 26 0
BBX 0 0 0 0
BITMAP
ENDCHAR
STARTCHAR 00D9
ENCODING 217
SWIDTH 500 0
DWIDTH 26 0
BBX 0 0 0 0
BITMAP
ENDCHAR
STARTCHAR 00DA
ENCODING 218
SWIDTH 500 0
DWIDTH 26 0
BBX 0 0 0 0
BITMAP
ENDCHAR
STARTCHAR 00DB
ENCODING 219
SWIDTH 500 0
DWIDTH 26 0
BBX 0 0 0 0
BITMAP
ENDCHAR
STARTCHAR 00DC
ENCODING 220
SWIDTH 500 0
DWIDTH 26 0
BBX 0 0 0 0
BITMAP
ENDCHAR
STARTCHAR 00DD
ENCODING 221
SWIDTH 38 0
DWIDTH 2 0
BBX 0 0 0 0
BITMAP
ENDCHAR
STARTCHAR 00DE
ENCODING 222
SWIDTH 500 0
DWIDTH 26 0
BBX 0 0 0 0
BITMAP
ENDCHAR
STARTCHAR 00DF
ENCODING 223
SWIDTH 500 0
DWIDTH 26 0
BBX 0 0 0 0
BITMAP
ENDCHAR
STARTCHAR 00E0
ENCODING 224
SWIDTH 500 0
DWIDTH 26 0
BBX 0 0 0 0
BITMAP
ENDCHAR
STARTCHAR 00E1
ENCODING 225
SWIDTH 500 0
DWIDTH 26 0
BBX 0 0 0 0
BITMAP
ENDCHAR
STARTCHAR 00E2
ENCODING 226
SWIDTH 500 0
DWIDTH 26 0
BBX 0 0 0 0
BITMAP
ENDCHAR
STARTCHAR 00E3
ENCODING 227
SWIDTH 500 0
DWIDTH 26 0
BBX 0 0 0 0
BITMAP
ENDCHAR
STARTCHAR 00E4
ENCODING 228
SWIDTH 500 0
DWIDTH 26 0
BBX 0 0 0 0
BITMAP
ENDCHAR
STARTCHAR 00E5
ENCODING 229
SWIDTH 500 0
DWIDTH 26 0
BBX 0 0 0 0
BITMAP
ENDCHAR
STARTCHAR 00E6
ENCODING 230
SWIDTH 500 0
DWIDTH 26 0
BBX 0 0 0 0
BITMAP
ENDCHAR
STARTCHAR 00E7
ENCODING 231
SWIDTH 500 0
DWIDTH 26 0
BBX 0 0 0 0
BITMAP
ENDCHAR
STARTCHAR 00E8
ENCODING 232
SWIDTH 500 0
DWIDTH 26 0
BBX 0 0 0 0
BITMAP
ENDCHAR
STARTCHAR 00E9
ENCODING 233
SWIDTH 500 0
DWIDTH 26 0
BBX 0 0 0 0
BITMAP
ENDCHAR
STARTCHAR 00EA
ENCODING 234
SWIDTH 500 0
DWIDTH 26 0
BBX 0 0 0 0
BITMAP
ENDCHAR
STARTCHAR 00EB
ENCODING 235
SWIDTH 500 0
DWIDTH 26 0
BBX 0 0 0 0
BITMAP
ENDCHAR
STARTCHAR 00EC
ENCODING 236
SWIDTH 500 0
DWIDTH 26 0
BBX 0 0 0 0
BITMAP
ENDCHAR
STARTCHAR 00ED
ENCODING 237
SWIDTH 500 0
DWIDTH 26 0
BBX 0 0 0 0
BITMAP
ENDCHAR
STARTCHAR 00EE
ENCODING 238
SWIDTH 500 0
DWIDTH 26 0
BBX 0 0 0 0
BITMAP
ENDCHAR
STARTCHAR 00EF
ENCODING 239
SWIDTH 500 0
DWIDTH 26 0
BBX 0 0 0 0
BITMAP
ENDCHAR
STARTCHAR 00F0
ENCODING 240
SWIDTH 500 0
DWIDTH 26 0
BBX 0 0 0 0
BITMAP
ENDCHAR
STARTCHAR 00F1
ENCODING 241
SWIDTH 500 0
DWIDTH 26 0
BBX 0 0 0 0
BITMAP
ENDCHAR
STARTCHAR 00F2
ENCODING 242
SWIDTH 500 0
DWIDTH 26 0
BBX 0 0 0 0
BITMAP
ENDCHAR
STARTCHAR 00F3
ENCODING 243
SWIDTH 500 0
DWIDTH 26 0
BBX 0 0 0 0
BITMAP
ENDCHAR
STARTCHAR 00F4
ENCODING 244
SWIDTH 500 0
DWIDTH 26 0
BBX 0 0 0 0
BITMAP
ENDCHAR
STARTCHAR 00F5
ENCODING 245
SWIDTH 500 0
DWIDTH 26 0
BBX 0 0 0 0
BITMAP
ENDCHAR
STARTCHAR 00F6
ENCODING 246
SWIDTH 500 0
DWIDTH 26 0
BBX 0 0 0 0
BITMAP
ENDCHAR
STARTCHAR 00F7
ENCODING 247
SWIDTH 500 0
DWIDTH 26 0
BBX 0 0 0 0
BITMAP
ENDCHAR
STARTCHAR 00F8
ENCODING 248
SWIDTH 500 0
DWIDTH 26 0
BBX 0 0 0 0
BITMAP
ENDCHAR
STARTCHAR 00F9
ENCODING 249
SWIDTH 500 0
DWIDTH 26 0
BBX 0 0 0 0
BITMAP
ENDCHAR
STARTCHAR 00FA
ENCODING 250
SWIDTH 500 0
DWIDTH 26 0
BBX 0 0 0 0
BITMAP
ENDCHAR
STARTCHAR 00FB
ENCODING 251
SWIDTH 500 0
DWIDTH 26 0
BBX 0 0 0 0
BITMAP
ENDCHAR
STARTCHAR 00FC
ENCODING 252
SWIDTH 500 0
DWIDTH 26 0
BBX 0 0 0 0
BITMAP
ENDCHAR
STARTCHAR 00FD
ENCODING 253
SWIDTH 38 0
DWIDTH 2 0
BBX 0 0 0 0
BITMAP
ENDCHAR
STARTCHAR 00FE
ENCODING 254
SWIDTH 500 0
DWIDTH 26 0
BBX 0 0 0 0
BITMAP
ENDCHAR
STARTCHAR 00FF
ENCODING 255
SWIDTH 500 0
DWIDTH 26 0
BBX 0 0 0 0
BITMAP
ENDCHAR
STARTCHAR 0102
ENCODING 258
SWIDTH 38 0
DWIDTH 2 0
BBX 0 0 0 0
BITMAP
ENDCHAR
STARTCHAR 0103
ENCODING 259
SWIDTH 38 0
DWIDTH 2 0
BBX 0 0 0 0
BITMAP
ENDCHAR
STARTCHAR 0104
ENCODING 260
SWIDTH 38 0
DWIDTH 2 0
BBX 0 0 0 0
BITMAP
ENDCHAR
STARTCHAR 0105
ENCODING 261
SWIDTH 38 0
DWIDTH 2 0
BBX 0 0 0 0
BITMAP
ENDCHAR
STARTCHAR 0106
ENCODING 262
SWIDTH 38 0
DWIDTH 2 0
BBX 0 0 0 0
BITMAP
ENDCHAR
STARTCHAR 0107
ENCODING 263
SWIDTH 38 0
DWIDTH 2 0
BBX 0 0 0 0
BITMAP
ENDCHAR
STARTCHAR 010C
ENCODING 268
SWIDTH 38 0
DWIDTH 2 0
BBX 0 0 0 0
BITMAP
ENDCHAR
STARTCHAR 010D
ENCODING 269
SWIDTH 38 0
DWIDTH 2 0
BBX 0 0 0 0
BITMAP
ENDCHAR
STARTCHAR 010E
ENCODING 270
SWIDTH 38 0
DWIDTH 2 0
BBX 0 0 0 0
BITMAP
ENDCHAR
STARTCHAR 010F
ENCODING 271
SWIDTH 38 0
DWIDTH 2 0
BBX 0 0 0 0
BITMAP
ENDCHAR
STARTCHAR 0110
ENCODING 272
SWIDTH 38 0
DWIDTH 2 0
BBX 0 0 0 0
BITMAP
ENDCHAR
STARTCHAR 0111
ENCODING 273
SWIDTH 38 0
DWIDTH 2 0
BBX 0 0 0 0
BITMAP
ENDCHAR
STARTCHAR 0118
ENCODING 280
SWIDTH 38 0
DWIDTH 2 0
BBX 0 0 0 0
BITMAP
ENDCHAR
STARTCHAR 0119
ENCODING 281
SWIDTH 38 0
DWIDTH 2 0
BBX 0 0 0 0
BITMAP
ENDCHAR
STARTCHAR 011A
ENCODING 282
SWIDTH 38 0
DWIDTH 2 0
BBX 0 0 0 0
BITMAP
ENDCHAR
STARTCHAR 011B
ENCODING 283
SWIDTH 38 0
DWIDTH 2 0
BBX 0 0 0 0
BITMAP
ENDCHAR
STARTCHAR 011E
ENCODING 286
SWIDTH 38 0
DWIDTH 2 0
BBX 0 0 0 0
BITMAP
ENDCHAR
STARTCHAR 011F
ENCODING 287
SWIDTH 38 0
DWIDTH 2 0
BBX 0 0 0 0
BITMAP
ENDCHAR
STARTCHAR 0130
ENCODING 304
SWIDTH 38 0
DWIDTH 2 0
BBX 0 0 0 0
BITMAP
ENDCHAR
STARTCHAR 0131
ENCODING 305
SWIDTH 500 0
DWIDTH 26 0
BBX 0 0 0 0
BITMAP
ENDCHAR
STARTCHAR 0139
ENCODING 313
SWIDTH 38 0
DWIDTH 2 0
BBX 0 0 0 0
BITMAP
ENDCHAR
STARTCHAR 013A
ENCODING 314
SWIDTH 38 0
DWIDTH 2 0
BBX 0 0 0 0
BITMAP
ENDCHAR
STARTCHAR 013D
ENCODING 317
SWIDTH 38 0
DWIDTH 2 0
BBX 0 0 0 0
BITMAP
ENDCHAR
STARTCHAR 013E
ENCODING 318
SWIDTH 38 0
DWIDTH 2 0
BBX 0 0 0 0
BITMAP
ENDCHAR
STARTCHAR 013F
ENCODING 319
SWIDTH 38 0
DWIDTH 2 0
BBX 0 0 0 0
BITMAP
ENDCHAR
STARTCHAR 0140
ENCODING 320
SWIDTH 38 0
DWIDTH 2 0
BBX 0 0 0 0
BITMAP
ENDCHAR
STARTCHAR 0141
ENCODING 321
SWIDTH 500 0
DWIDTH 26 0
BBX 0 0 0 0
BITMAP
ENDCHAR
STARTCHAR 0142
ENCODING 322
SWIDTH 500 0
DWIDTH 26 0
BBX 0 0 0 0
BITMAP
ENDCHAR
STARTCHAR 0143
ENCODING 323
SWIDTH 38 0
DWIDTH 2 0
BBX 0 0 0 0
BITMAP
ENDCHAR
STARTCHAR 0144
ENCODING 324
SWIDTH 38 0
DWIDTH 2 0
BBX 0 0 0 0
BITMAP
ENDCHAR
STARTCHAR 0147
ENCODING 327
SWIDTH 38 0
DWIDTH 2 0
BBX 0 0 0 0
BITMAP
ENDCHAR
STARTCHAR 0148
ENCODING 328
SWIDTH 38 0
DWIDTH 2 0
BBX 0 0 0 0
BITMAP
ENDCHAR
STARTCHAR 0150
ENCODING 336
SWIDTH 38 0
DWIDTH 2 0
BBX 0 0 0 0
BITMAP
ENDCHAR
STARTCHAR 0151
ENCODING 337
SWIDTH 38 0
DWIDTH 2 0
BBX 0 0 0 0
BITMAP
ENDCHAR
STARTCHAR 0152
ENCODING 338
SWIDTH 500 0
DWIDTH 26 0
BBX 0 0 0 0
BITMAP
ENDCHAR
STARTCHAR 0153
ENCODING 339
SWIDTH 500 0
DWIDTH 26 0
BBX 0 0 0 0
BITMAP
ENDCHAR
STARTCHAR 0154
ENCODING 340
SWIDTH 38 0
DWIDTH 2 0
BBX 0 0 0 0
BITMAP
ENDCHAR
STARTCHAR 0155
ENCODING 341
SWIDTH 38 0
DWIDTH 2 0
BBX 0 0 0 0
BITMAP
ENDCHAR
STARTCHAR 0158
ENCODING 344
SWIDTH 38 0
DWIDTH 2 0
BBX 0 0 0 0
BITMAP
ENDCHAR
STARTCHAR 0159
ENCODING 345
SWIDTH 38 0
DWIDTH 2 0
BBX 0 0 0 0
BITMAP
ENDCHAR
STARTCHAR 015A
ENCODING 346
SWIDTH 38 0
DWIDTH 2 0
BBX 0 0 0 0
BITMAP
ENDCHAR
STARTCHAR 015B
ENCODING 347
SWIDTH 38 0
DWIDTH 2 0
BBX 0 0 0 0
BITMAP
ENDCHAR
STARTCHAR 015E
ENCODING 350
SWIDTH 38 0
DWIDTH 2 0
BBX 0 0 0 0
BITMAP
ENDCHAR
STARTCHAR 015F
ENCODING 351
SWIDTH 38 0
DWIDTH 2 0
BBX 0 0 0 0
BITMAP
ENDCHAR
STARTCHAR 0160
ENCODING 352
SWIDTH 500 0
DWIDTH 26 0
BBX 0 0 0 0
BITMAP
ENDCHAR
STARTCHAR 0161
ENCODING 353
SWIDTH 500 0
DWIDTH 26 0
BBX 0 0 0 0
BITMAP
ENDCHAR
STARTCHAR 0162
ENCODING 354
SWIDTH 38 0
DWIDTH 2 0
BBX 0 0 0 0
BITMAP
ENDCHAR
STARTCHAR 0163
ENCODING 355
SWIDTH 38 0
DWIDTH 2 0
BBX 0 0 0 0
BITMAP
ENDCHAR
STARTCHAR 0164
ENCODING 356
SWIDTH 38 0
DWIDTH 2 0
BBX 0 0 0 0
BITMAP
ENDCHAR
STARTCHAR 0165
ENCODING 357
SWIDTH 38 0
DWIDTH 2 0
BBX 0 0 0 0
BITMAP
ENDCHAR
STARTCHAR 016E
ENCODING 366
SWIDTH 38 0
DWIDTH 2 0
BBX 0 0 0 0
BITMAP
ENDCHAR
STARTCHAR 016F
ENCODING 367
SWIDTH 38 0
DWIDTH 2 0
BBX 0 0 0 0
BITMAP
ENDCHAR
STARTCHAR 0170
ENCODING 368
SWIDTH 38 0
DWIDTH 2 0
BBX 0 0 0 0
BITMAP
ENDCHAR
STARTCHAR 0171
ENCODING 369
SWIDTH 38 0
DWIDTH 2 0
BBX 0 0 0 0
BITMAP
ENDCHAR
STARTCHAR 0178
ENCODING 376
SWIDTH 500 0
DWIDTH 26 0
BBX 0 0 0 0
BITMAP
ENDCHAR
STARTCHAR 0179
ENCODING 377
SWIDTH 38 0
DWIDTH 2 0
BBX 0 0 0 0
BITMAP
ENDCHAR
STARTCHAR 017A
ENCODING 378
SWIDTH 38 0
DWIDTH 2 0
BBX 0 0 0 0
BITMAP
ENDCHAR
STARTCHAR 017B
ENCODING 379
SWIDTH 38 0
DWIDTH 2 0
BBX 0 0 0 0
BITMAP
ENDCHAR
STARTCHAR 017C
ENCODING 380
SWIDTH 38 0
DWIDTH 2 0
BBX 0 0 0 0
BITMAP
ENDCHAR
STARTCHAR 017D
ENCODING 381
SWIDTH 500 0
DWIDTH 26 0
BBX 0 0 0 0
BITMAP
ENDCHAR
STARTCHAR 017E
ENCODING 382
SWIDTH 500 0
DWIDTH 26 0
BBX 0 0 0 0
BITMAP
ENDCHAR
STARTCHAR 0192
ENCODING 402
SWIDTH 500 0
DWIDTH 26 0
BBX 0 0 0 0
BITMAP
ENDCHAR
STARTCHAR 02BA
ENCODING 698
SWIDTH 500 0
DWIDTH 26 0
BBX 0 0 0 0
BITMAP
ENDCHAR
STARTCHAR 02C6
ENCODING 710
SWIDTH 500 0
DWIDTH 26 0
BBX 0 0 0 0
BITMAP
ENDCHAR
STARTCHAR 02C7
ENCODING 711
SWIDTH 500 0
DWIDTH 26 0
BBX 0 0 0 0
BITMAP
ENDCHAR
STARTCHAR 02C9
ENCODING 713
SWIDTH 500 0
DWIDTH 26 0
BBX 0 0 0 0
BITMAP
ENDCHAR
STARTCHAR 02D8
ENCODING 728
SWIDTH 500 0
DWIDTH 26 0
BBX 0 0 0 0
BITMAP
ENDCHAR
STARTCHAR 02D9
ENCODING 729
SWIDTH 500 0
DWIDTH 26 0
BBX 0 0 0 0
BITMAP
ENDCHAR
STARTCHAR 02DA
ENCODING 730
SWIDTH 500 0
DWIDTH 26 0
BBX 0 0 0 0
BITMAP
ENDCHAR
STARTCHAR 02DB
ENCODING 731
SWIDTH 500 0
DWIDTH 26 0
BBX 0 0 0 0
BITMAP
ENDCHAR
STARTCHAR 02DC
ENCODING 732
SWIDTH 500 0
DWIDTH 26 0
BBX 0 0 0 0
BITMAP
ENDCHAR
STARTCHAR 0393
ENCODING 915
SWIDTH 500 0
DWIDTH 26 0
BBX 0 0 0 0
BITMAP
ENDCHAR
STARTCHAR 0398
ENCODING 920
SWIDTH 500 0
DWIDTH 26 0
BBX 0 0 0 0
BITMAP
ENDCHAR
STARTCHAR 03A3
ENCODING 931
SWIDTH 500 0
DWIDTH 26 0
BBX 0 0 0 0
BITMAP
ENDCHAR
STARTCHAR 03A6
ENCODING 934
SWIDTH 500 0
DWIDTH 26 0
BBX 0 0 0 0
BITMAP
ENDCHAR
STARTCHAR 03A9
ENCODING 937
SWIDTH 500 0
DWIDTH 26 0
BBX 0 0 0 0
BITMAP
ENDCHAR
STARTCHAR 03B1
ENCODING 945
SWIDTH 500 0
DWIDTH 26 0
BBX 0 0 0 0
BITMAP
ENDCHAR
STARTCHAR 03B4
ENCODING 948
SWIDTH 500 0
DWIDTH 26 0
BBX 0 0 0 0
BITMAP
ENDCHAR
STARTCHAR 03B5
ENCODING 949
SWIDTH 500 0
DWIDTH 26 0
BBX 0 0 0 0
BITMAP
ENDCHAR
STARTCHAR 03C0
ENCODING 960
SWIDTH 500 0
DWIDTH 26 0
BBX 0 0 0 0
BITMAP
ENDCHAR
STARTCHAR 03C3
ENCODING 963
SWIDTH 38 0
DWIDTH 2 0
BBX 0 0 0 0
BITMAP
ENDCHAR
STARTCHAR 03C4
ENCODING 964
SWIDTH 500 0
DWIDTH 26 0
BBX 0 0 0 0
BITMAP
ENDCHAR
STARTCHAR 03C6
ENCODING 966
SWIDTH 38 0
DWIDTH 2 0
BBX 0 0 0 0
BITMAP
ENDCHAR
STARTCHAR 2013
ENCODING 8211
SWIDTH 500 0
DWIDTH 26 0
BBX 0 0 0 0
BITMAP
ENDCHAR
STARTCHAR 2014
ENCODING 8212
SWIDTH 500 0
DWIDTH 26 0
BBX 0 0 0 0
BITMAP
ENDCHAR
STARTCHAR 2017
ENCODING 8215
SWIDTH 500 0
DWIDTH 26 0
BBX 0 0 0 0
BITMAP
ENDCHAR
STARTCHAR 2018
ENCODING 8216
SWIDTH 500 0
DWIDTH 26 0
BBX 0 0 0 0
BITMAP
ENDCHAR
STARTCHAR 2019
ENCODING 8217
SWIDTH 38 0
DWIDTH 2 0
BBX 7 12 -1 41
BITMAP
FE
FE
FE
FE
7E
7E
7E
7E
7E
3E
3E
3E
ENDCHAR
STARTCHAR 201A
ENCODING 8218
SWIDTH 500 0
DWIDTH 26 0
BBX 0 0 0 0
BITMAP
ENDCHAR
STARTCHAR 201C
ENCODING 8220
SWIDTH 500 0
DWIDTH 26 0
BBX 0 0 0 0
BITMAP
ENDCHAR
STARTCHAR 201D
ENCODING 8221
SWIDTH 500 0
DWIDTH 26 0
BBX 0 0 0 0
BITMAP
ENDCHAR
STARTCHAR 201E
ENCODING 8222
SWIDTH 500 0
DWIDTH 26 0
BBX 0 0 0 0
BITMAP
ENDCHAR
STARTCHAR 2020
ENCODING 8224
SWIDTH 500 0
DWIDTH 26 0
BBX 0 0 0 0
BITMAP
ENDCHAR
STARTCHAR 2021
ENCODING 8225
SWIDTH 500 0
DWIDTH 26 0
BBX 0 0 0 0
BITMAP
ENDCHAR
STARTCHAR 2022
ENCODING 8226
SWIDTH 500 0
DWIDTH 26 0
BBX 0 0 0 0
BITMAP
ENDCHAR
STARTCHAR 2026
ENCODING 8230
SWIDTH 500 0
DWIDTH 26 0
BBX 0 0 0 0
BITMAP
ENDCHAR
STARTCHAR 2030
ENCODING 8240
SWIDTH 500 0
DWIDTH 26 0
BBX 0 0 0 0
BITMAP
ENDCHAR
STARTCHAR 2039
ENCODING 8249
SWIDTH 500 0
DWIDTH 26 0
BBX 0 0 0 0
BITMAP
ENDCHAR
STARTCHAR 203A
ENCODING 8250
SWIDTH 500 0
DWIDTH 26 0
BBX 0 0 0 0
BITMAP
ENDCHAR
STARTCHAR 203C
ENCODING 8252
SWIDTH 500 0
DWIDTH 26 0
BBX 0 0 0 0
BITMAP
ENDCHAR
STARTCHAR 207F
ENCODING 8319
SWIDTH 500 0
DWIDTH 26 0
BBX 0 0 0 0
BITMAP
ENDCHAR
STARTCHAR 20A3
ENCODING 8355
SWIDTH 500 0
DWIDTH 26 0
BBX 0 0 0 0
BITMAP
ENDCHAR
STARTCHAR 20A7
ENCODING 8359
SWIDTH 500 0
DWIDTH 26 0
BBX 0 0 0 0
BITMAP
ENDCHAR
STARTCHAR 2122
ENCODING 8482
SWIDTH 500 0
DWIDTH 26 0
BBX 0 0 0 0
BITMAP
ENDCHAR
STARTCHAR 2190
ENCODING 8592
SWIDTH 38 0
DWIDTH 2 0
BBX 0 0 0 0
BITMAP
ENDCHAR
STARTCHAR 2191
ENCODING 8593
SWIDTH 38 0
DWIDTH 2 0
BBX 0 0 0 0
BITMAP
ENDCHAR
STARTCHAR 2192
ENCODING 8594
SWIDTH 500 0
DWIDTH 26 0
BBX 0 0 0 0
BITMAP
ENDCHAR
STARTCHAR 2193
ENCODING 8595
SWIDTH 38 0
DWIDTH 2 0
BBX 0 0 0 0
BITMAP
ENDCHAR
STARTCHAR 2194
ENCODING 8596
SWIDTH 38 0
DWIDTH 2 0
BBX 0 0 0 0
BITMAP
ENDCHAR
STARTCHAR 2195
ENCODING 8597
SWIDTH 38 0
DWIDTH 2 0
BBX 0 0 0 0
BITMAP
ENDCHAR
STARTCHAR 21A8
ENCODING 8616
SWIDTH 38 0
DWIDTH 2 0
BBX 0 0 0 0
BITMAP
ENDCHAR
STARTCHAR 2202
ENCODING 8706
SWIDTH 500 0
DWIDTH 26 0
BBX 0 0 0 0
BITMAP
ENDCHAR
STARTCHAR 2206
ENCODING 8710
SWIDTH 500 0
DWIDTH 26 0
BBX 0 0 0 0
BITMAP
ENDCHAR
STARTCHAR 220F
ENCODING 8719
SWIDTH 38 0
DWIDTH 2 0
BBX 0 0 0 0
BITMAP
ENDCHAR
STARTCHAR 2212
ENCODING 8722
SWIDTH 500 0
DWIDTH 26 0
BBX 0 0 0 0
BITMAP
ENDCHAR
STARTCHAR 2215
ENCODING 8725
SWIDTH 500 0
DWIDTH 26 0
BBX 0 0 0 0
BITMAP
ENDCHAR
STARTCHAR 2219
ENCODING 8729
SWIDTH 500 0
DWIDTH 26 0
BBX 0 0 0 0
BITMAP
ENDCHAR
STARTCHAR 221A
ENCODING 8730
SWIDTH 500 0
DWIDTH 26 0
BBX 0 0 0 0
BITMAP
ENDCHAR
STARTCHAR 221E
ENCODING 8734
SWIDTH 38 0
DWIDTH 2 0
BBX 0 0 0 0
BITMAP
ENDCHAR
STARTCHAR 221F
ENCODING 8735
SWIDTH 38 0
DWIDTH 2 0
BBX 0 0 0 0
BITMAP
ENDCHAR
STARTCHAR 2229
ENCODING 8745
SWIDTH 38 0
DWIDTH 2 0
BBX 0 0 0 0
BITMAP
ENDCHAR
STARTCHAR 222B
ENCODING 8747
SWIDTH 38 0
DWIDTH 2 0
BBX 0 0 0 0
BITMAP
ENDCHAR
STARTCHAR 2248
ENCODING 8776
SWIDTH 500 0
DWIDTH 26 0
BBX 0 0 0 0
BITMAP
ENDCHAR
STARTCHAR 2260
ENCODING 8800
SWIDTH 500 0
DWIDTH 26 0
BBX 0 0 0 0
BITMAP
ENDCHAR
STARTCHAR 2261
ENCODING 8801
SWIDTH 38 0
DWIDTH 2 0
BBX 0 0 0 0
BITMAP
ENDCHAR
STARTCHAR 2264
ENCODING 8804
SWIDTH 500 0
DWIDTH 26 0
BBX 0 0 0 0
BITMAP
ENDCHAR
STARTCHAR 2265
ENCODING 8805
SWIDTH 500 0
DWIDTH 26 0
BBX 0 0 0 0
BITMAP
ENDCHAR
STARTCHAR 2302
ENCODING 8962
SWIDTH 38 0
DWIDTH 2 0
BBX 0 0 0 0
BITMAP
ENDCHAR
STARTCHAR 2310
ENCODING 8976
SWIDTH 38 0
DWIDTH 2 0
BBX 0 0 0 0
BITMAP
ENDCHAR
STARTCHAR 2320
ENCODING 8992
SWIDTH 38 0
DWIDTH 2 0
BBX 0 0 0 0
BITMAP
ENDCHAR
STARTCHAR 2321
ENCODING 8993
SWIDTH 38 0
DWIDTH 2 0
BBX 0 0 0 0
BITMAP
ENDCHAR
STARTCHAR 2500
ENCODING 9472
SWIDTH 38 0
DWIDTH 2 0
BBX 0 0 0 0
BITMAP
ENDCHAR
STARTCHAR 2502
ENCODING 9474
SWIDTH 38 0
DWIDTH 2 0
BBX 0 0 0 0
BITMAP
ENDCHAR
STARTCHAR 250C
ENCODING 9484
SWIDTH 38 0
DWIDTH 2 0
BBX 0 0 0 0
BITMAP
ENDCHAR
STARTCHAR 2510
ENCODING 9488
SWIDTH 38 0
DWIDTH 2 0
BBX 0 0 0 0
BITMAP
ENDCHAR
STARTCHAR 2514
ENCODING 9492
SWIDTH 38 0
DWIDTH 2 0
BBX 0 0 0 0
BITMAP
ENDCHAR
STARTCHAR 2518
ENCODING 9496
SWIDTH 38 0
DWIDTH 2 0
BBX 0 0 0 0
BITMAP
ENDCHAR
STARTCHAR 251C
ENCODING 9500
SWIDTH 38 0
DWIDTH 2 0
BBX 0 0 0 0
BITMAP
ENDCHAR
STARTCHAR 2524
ENCODING 9508
SWIDTH 38 0
DWIDTH 2 0
BBX 0 0 0 0
BITMAP
ENDCHAR
STARTCHAR 252C
ENCODING 9516
SWIDTH 38 0
DWIDTH 2 0
BBX 0 0 0 0
BITMAP
ENDCHAR
STARTCHAR 2534
ENCODING 9524
SWIDTH 38 0
DWIDTH 2 0
BBX 0 0 0 0
BITMAP
ENDCHAR
STARTCHAR 253C
ENCODING 9532
SWIDTH 38 0
DWIDTH 2 0
BBX 0 0 0 0
BITMAP
ENDCHAR
STARTCHAR 2550
ENCODING 9552
SWIDTH 38 0
DWIDTH 2 0
BBX 0 0 0 0
BITMAP
ENDCHAR
STARTCHAR 2551
ENCODING 9553
SWIDTH 38 0
DWIDTH 2 0
BBX 0 0 0 0
BITMAP
ENDCHAR
STARTCHAR 2552
ENCODING 9554
SWIDTH 38 0
DWIDTH 2 0
BBX 0 0 0 0
BITMAP
ENDCHAR
STARTCHAR 2553
ENCODING 9555
SWIDTH 38 0
DWIDTH 2 0
BBX 0 0 0 0
BITMAP
ENDCHAR
STARTCHAR 2554
ENCODING 9556
SWIDTH 38 0
DWIDTH 2 0
BBX 0 0 0 0
BITMAP
ENDCHAR
STARTCHAR 2555
ENCODING 9557
SWIDTH 38 0
DWIDTH 2 0
BBX 0 0 0 0
BITMAP
ENDCHAR
STARTCHAR 2556
ENCODING 9558
SWIDTH 38 0
DWIDTH 2 0
BBX 0 0 0 0
BITMAP
ENDCHAR
STARTCHAR 2557
ENCODING 9559
SWIDTH 38 0
DWIDTH 2 0
BBX 0 0 0 0
BITMAP
ENDCHAR
STARTCHAR 2558
ENCODING 9560
SWIDTH 38 0
DWIDTH 2 0
BBX 0 0 0 0
BITMAP
ENDCHAR
STARTCHAR 2559
ENCODING 9561
SWIDTH 38 0
DWIDTH 2 0
BBX 0 0 0 0
BITMAP
ENDCHAR
STARTCHAR 255A
ENCODING 9562
SWIDTH 38 0
DWIDTH 2 0
BBX 0 0 0 0
BITMAP
ENDCHAR
STARTCHAR 255B
ENCODING 9563
SWIDTH 38 0
DWIDTH 2 0
BBX 0 0 0 0
BITMAP
ENDCHAR
STARTCHAR 255C
ENCODING 9564
SWIDTH 38 0
DWIDTH 2 0
BBX 0 0 0 0
BITMAP
ENDCHAR
STARTCHAR 255D
ENCODING 9565
SWIDTH 38 0
DWIDTH 2 0
BBX 0 0 0 0
BITMAP
ENDCHAR
STARTCHAR 255E
ENCODING 9566
SWIDTH 38 0
DWIDTH 2 0
BBX 0 0 0 0
BITMAP
ENDCHAR
STARTCHAR 255F
ENCODING 9567
SWIDTH 38 0
DWIDTH 2 0
BBX 0 0 0 0
BITMAP
ENDCHAR
STARTCHAR 2560
ENCODING 9568
SWIDTH 38 0
DWIDTH 2 0
BBX 0 0 0 0
BITMAP
ENDCHAR
STARTCHAR 2561
ENCODING 9569
SWIDTH 38 0
DWIDTH 2 0
BBX 0 0 0 0
BITMAP
ENDCHAR
STARTCHAR 2562
ENCODING 9570
SWIDTH 38 0
DWIDTH 2 0
BBX 0 0 0 0
BITMAP
ENDCHAR
STARTCHAR 2563
ENCODING 9571
SWIDTH 38 0
DWIDTH 2 0
BBX 0 0 0 0
BITMAP
ENDCHAR
STARTCHAR 2564
ENCODING 9572
SWIDTH 38 0
DWIDTH 2 0
BBX 0 0 0 0
BITMAP
ENDCHAR
STARTCHAR 2565
ENCODING 9573
SWIDTH 38 0
DWIDTH 2 0
BBX 0 0 0 0
BITMAP
ENDCHAR
STARTCHAR 2566
ENCODING 9574
SWIDTH 38 0
DWIDTH 2 0
BBX 0 0 0 0
BITMAP
ENDCHAR
STARTCHAR 2567
ENCODING 9575
SWIDTH 38 0
DWIDTH 2 0
BBX 0 0 0 0
BITMAP
ENDCHAR
STARTCHAR 2568
ENCODING 9576
SWIDTH 38 0
DWIDTH 2 0
BBX 0 0 0 0
BITMAP
ENDCHAR
STARTCHAR 2569
ENCODING 9577
SWIDTH 38 0
DWIDTH 2 0
BBX 0 0 0 0
BITMAP
ENDCHAR
STARTCHAR 256A
ENCODING 9578
SWIDTH 38 0
DWIDTH 2 0
BBX 0 0 0 0
BITMAP
ENDCHAR
STARTCHAR 256B
ENCODING 9579
SWIDTH 38 0
DWIDTH 2 0
BBX 0 0 0 0
BITMAP
ENDCHAR
STARTCHAR 256C
ENCODING 9580
SWIDTH 38 0
DWIDTH 2 0
BBX 0 0 0 0
BITMAP
ENDCHAR
STARTCHAR 2580
ENCODING 9600
SWIDTH 38 0
DWIDTH 2 0
BBX 0 0 0 0
BITMAP
ENDCHAR
STARTCHAR 2584
ENCODING 9604
SWIDTH 38 0
DWIDTH 2 0
BBX 0 0 0 0
BITMAP
ENDCHAR
STARTCHAR 2588
ENCODING 9608
SWIDTH 38 0
DWIDTH 2 0
BBX 0 0 0 0
BITMAP
ENDCHAR
STARTCHAR 258C
ENCODING 9612
SWIDTH 38 0
DWIDTH 2 0
BBX 0 0 0 0
BITMAP
ENDCHAR
STARTCHAR 2590
ENCODING 9616
SWIDTH 38 0
DWIDTH 2 0
BBX 0 0 0 0
BITMAP
ENDCHAR
STARTCHAR 2591
ENCODING 9617
SWIDTH 38 0
DWIDTH 2 0
BBX 0 0 0 0
BITMAP
ENDCHAR
STARTCHAR 2592
ENCODING 9618
SWIDTH 38 0
DWIDTH 2 0
BBX 0 0 0 0
BITMAP
ENDCHAR
STARTCHAR 2593
ENCODING 9619
SWIDTH 38 0
DWIDTH 2 0
BBX 0 0 0 0
BITMAP
ENDCHAR
STARTCHAR 25A0
ENCODING 9632
SWIDTH 500 0
DWIDTH 26 0
BBX 0 0 0 0
BITMAP
ENDCHAR
STARTCHAR 25AC
ENCODING 9644
SWIDTH 38 0
DWIDTH 2 0
BBX 0 0 0 0
BITMAP
ENDCHAR
STARTCHAR 25B2
ENCODING 9650
SWIDTH 38 0
DWIDTH 2 0
BBX 0 0 0 0
BITMAP
ENDCHAR
STARTCHAR 25BA
ENCODING 9658
SWIDTH 38 0
DWIDTH 2 0
BBX 0 0 0 0
BITMAP
ENDCHAR
STARTCHAR 25BC
ENCODING 9660
SWIDTH 38 0
DWIDTH 2 0
BBX 0 0 0 0
BITMAP
ENDCHAR
STARTCHAR 25C4
ENCODING 9668
SWIDTH 38 0
DWIDTH 2 0
BBX 0 0 0 0
BITMAP
ENDCHAR
STARTCHAR 25CA
ENCODING 9674
SWIDTH 500 0
DWIDTH 26 0
BBX 0 0 0 0
BITMAP
ENDCHAR
STARTCHAR 25CB
ENCODING 9675
SWIDTH 38 0
DWIDTH 2 0
BBX 0 0 0 0
BITMAP
ENDCHAR
STARTCHAR 25D8
ENCODING 9688
SWIDTH 38 0
DWIDTH 2 0
BBX 0 0 0 0
BITMAP
ENDCHAR
STARTCHAR 25D9
ENCODING 9689
SWIDTH 38 0
DWIDTH 2 0
BBX 0 0 0 0
BITMAP
ENDCHAR
STARTCHAR 263A
ENCODING 9786
SWIDTH 38 0
DWIDTH 2 0
BBX 0 0 0 0
BITMAP
ENDCHAR
STARTCHAR 263B
ENCODING 9787
SWIDTH 38 0
DWIDTH 2 0
BBX 0 0 0 0
BITMAP
ENDCHAR
STARTCHAR 263C
ENCODING 9788
SWIDTH 38 0
DWIDTH 2 0
BBX 0 0 0 0
BITMAP
ENDCHAR
STARTCHAR 2640
ENCODING 9792
SWIDTH 38 0
DWIDTH 2 0
BBX 0 0 0 0
BITMAP
ENDCHAR
STARTCHAR 2642
ENCODING 9794
SWIDTH 38 0
DWIDTH 2 0
BBX 0 0 0 0
BITMAP
ENDCHAR
STARTCHAR 2660
ENCODING 9824
SWIDTH 38 0
DWIDTH 2 0
BBX 0 0 0 0
BITMAP
ENDCHAR
STARTCHAR 2663
ENCODING 9827
SWIDTH 38 0
DWIDTH 2 0
BBX 0 0 0 0
BITMAP
ENDCHAR
STARTCHAR 2665
ENCODING 9829
SWIDTH 38 0
DWIDTH 2 0
BBX 0 0 0 0
BITMAP
ENDCHAR
STARTCHAR 2666
ENCODING 9830
SWIDTH 38 0
DWIDTH 2 0
BBX 0 0 0 0
BITMAP
ENDCHAR
STARTCHAR 266A
ENCODING 9834
SWIDTH 38 0
DWIDTH 2 0
BBX 0 0 0 0
BITMAP
ENDCHAR
STARTCHAR 266B
ENCODING 9835
SWIDTH 38 0
DWIDTH 2 0
BBX 0 0 0 0
BITMAP
ENDCHAR
STARTCHAR F000
ENCODING 61440
SWIDTH 38 0
DWIDTH 2 0
BBX 0 0 0 0
BITMAP
ENDCHAR
STARTCHAR F001
ENCODING 61441
SWIDTH 500 0
DWIDTH 26 0
BBX 0 0 0 0
BITMAP
ENDCHAR
STARTCHAR F002
ENCODING 61442
SWIDTH 500 0
DWIDTH 26 0
BBX 0 0 0 0
BITMAP
ENDCHAR
ENDFONT
